<svg xmlns="http://www.w3.org/2000/svg" width="1223" height="678"><g transform="matrix(1 0 0 -1 429 259.55)" id="id-1757197194008-2"  >
<line style="stroke: rgb(0,0,0); stroke-width: 26; stroke-dasharray: none; stroke-linecap: butt; stroke-dashoffset: 0; stroke-linejoin: miter; stroke-miterlimit: 4; fill: rgb(0,0,0); fill-rule: nonzero; opacity: 1;"  x1="-415" y1="0" x2="415" y2="0" />
</g>
<g transform="matrix(1 0 0 1 522 487)" id="id-1757197195711-3"  >
<rect style="stroke: rgb(0,0,0); stroke-width: 26; stroke-dasharray: none; stroke-linecap: butt; stroke-dashoffset: 0; stroke-linejoin: miter; stroke-miterlimit: 4; fill: rgb(0,0,0); fill-rule: nonzero; opacity: 1;"  x="-266" y="0" rx="0" ry="0" width="532" height="0" />
</g>
<g transform="matrix(1 0 0 1 916 370.5)" id="id-1757197217438-4"  >
<rect style="stroke: rgb(0,0,0); stroke-width: 26; stroke-dasharray: none; stroke-linecap: butt; stroke-dashoffset: 0; stroke-linejoin: miter; stroke-miterlimit: 4; fill: none; fill-rule: nonzero; opacity: 1;"  x="-229" y="-216.5" rx="0" ry="0" width="458" height="433" />
</g>
<g transform="matrix(1 0 0 1 524.85 660)" id="id-1757197256258-5"  >
<line style="stroke: rgb(0,0,0); stroke-width: 36; stroke-dasharray: none; stroke-linecap: butt; stroke-dashoffset: 0; stroke-linejoin: miter; stroke-miterlimit: 4; fill: rgb(0,0,0); fill-rule: nonzero; opacity: 1;"  x1="-394.84887770322524" y1="0" x2="394.84887770322524" y2="0" />
</g>
<g transform="matrix(1 0 0 1 1023.5 226.5)" id="id-1757197350519-6"  >
<rect style="stroke: rgb(0,0,0); stroke-width: 26; stroke-dasharray: none; stroke-linecap: butt; stroke-dashoffset: 0; stroke-linejoin: miter; stroke-miterlimit: 4; fill: rgb(0,0,0); fill-rule: nonzero; opacity: 1;"  x="-186.5" y="-181.5" rx="0" ry="0" width="373" height="363" />
</g>
<g transform="matrix(1 0 0 1 1091 110)" id="id-1757197622922-2"  >
<circle style="stroke: rgb(0,0,0); stroke-width: 26; stroke-dasharray: none; stroke-linecap: butt; stroke-dashoffset: 0; stroke-linejoin: miter; stroke-miterlimit: 4; fill: rgb(206,28,28); fill-rule: nonzero; opacity: 1;"  cx="0" cy="0" r="30" />
</g>
<g transform="matrix(1 0 0 1 958 153)" id="id-1757197631706-3"  >
<circle style="stroke: rgb(0,0,0); stroke-width: 26; stroke-dasharray: none; stroke-linecap: butt; stroke-dashoffset: 0; stroke-linejoin: miter; stroke-miterlimit: 4; fill: rgb(150,206,28); fill-rule: nonzero; opacity: 1;"  cx="0" cy="0" r="30" />
</g>
<g transform="matrix(0.97 0.26 -0.26 0.97 755.41 384.66)" id="id-1757197642093-4"  >
<path d="M 4.175193028801964 29.70804206224711 A 30 30 0 1 1 30 -7.34788079488412e-15" style="stroke: rgb(0,0,0); stroke-width: 26; stroke-dasharray: none; stroke-linecap: butt; stroke-dashoffset: 0; stroke-linejoin: miter; stroke-miterlimit: 4; fill: rgb(150,206,28); fill-rule: nonzero; opacity: 1;"   />
</g>
<g transform="matrix(0.97 0.26 -0.26 0.97 822.58 308.77)" id="id-1757197662238-5"  >
<path d="M -30 0 A 30 30 0 0 1 30 -7.34788079488412e-15" style="stroke: rgb(245,0,0); stroke-width: 18; stroke-dasharray: none; stroke-linecap: butt; stroke-dashoffset: 0; stroke-linejoin: miter; stroke-miterlimit: 4; fill: rgb(12,14,7); fill-rule: nonzero; opacity: 1;"   />
</g>
</svg>