<svg xmlns="http://www.w3.org/2000/svg" width="68" height="113"><g transform="matrix(1 0 0 1 21.5 56.5)" id="id-e9177f"  >
<polygon style="stroke: rgb(255,255,255); stroke-width: 3; stroke-dasharray: none; stroke-linecap: butt; stroke-dashoffset: 0; stroke-linejoin: miter; stroke-miterlimit: 4; fill: rgb(0,0,0); fill-rule: nonzero; opacity: 1;"  points="0,-40 0,40 " />
</g>
<g transform="matrix(1 0 0 1 11.5 9)" id="id-7f9ce2"  >
<polygon style="stroke: rgb(255,255,255); stroke-width: 3; stroke-dasharray: none; stroke-linecap: butt; stroke-dashoffset: 0; stroke-linejoin: miter; stroke-miterlimit: 4; fill: rgb(0,0,0); fill-rule: nonzero; opacity: 1;"  points="10,7.5 -10,-7.5 " />
</g>
<g transform="matrix(1 0 0 1 11.5 104)" id="id-9db49f"  >
<polygon style="stroke: rgb(255,255,255); stroke-width: 3; stroke-dasharray: none; stroke-linecap: butt; stroke-dashoffset: 0; stroke-linejoin: miter; stroke-miterlimit: 4; fill: rgb(0,0,0); fill-rule: nonzero; opacity: 1;"  points="-10,7.5 10,-7.5 " />
</g>
<g transform="matrix(1 0 0 1 46.5 56.5)" id="id-2883d9"  >
<polygon style="stroke: rgb(255,255,255); stroke-width: 3; stroke-dasharray: none; stroke-linecap: butt; stroke-dashoffset: 0; stroke-linejoin: miter; stroke-miterlimit: 4; fill: rgb(0,0,0); fill-rule: nonzero; opacity: 1;"  points="0,-40 0,40 " />
</g>
<g transform="matrix(1 0 0 1 56.5 9)" id="id-91c0a1"  >
<polygon style="stroke: rgb(255,255,255); stroke-width: 3; stroke-dasharray: none; stroke-linecap: butt; stroke-dashoffset: 0; stroke-linejoin: miter; stroke-miterlimit: 4; fill: rgb(0,0,0); fill-rule: nonzero; opacity: 1;"  points="10,-7.5 -10,7.5 " />
</g>
<g transform="matrix(1 0 0 1 56.5 104)" id="id-6cff28"  >
<polygon style="stroke: rgb(255,255,255); stroke-width: 3; stroke-dasharray: none; stroke-linecap: butt; stroke-dashoffset: 0; stroke-linejoin: miter; stroke-miterlimit: 4; fill: rgb(0,0,0); fill-rule: nonzero; opacity: 1;"  points="10,7.5 -10,-7.5 " />
</g>
</svg>