<svg xmlns="http://www.w3.org/2000/svg" width="1575" height="455"><g transform="matrix(1 0 0 1 2.5 397.5)" id="id-fe7087"  >
<polygon style="stroke: rgb(255,0,0); stroke-width: 5; stroke-dasharray: none; stroke-linecap: butt; stroke-dashoffset: 0; stroke-linejoin: miter; stroke-miterlimit: 4; fill: rgb(255,128,0); fill-rule: nonzero; opacity: 1;"  points="0,-55 0,55 " />
</g>
<g transform="matrix(1 0 0 1 162.5 452.5)" id="id-d69e9b"  >
<polygon style="stroke: rgb(255,0,0); stroke-width: 5; stroke-dasharray: none; stroke-linecap: butt; stroke-dashoffset: 0; stroke-linejoin: miter; stroke-miterlimit: 4; fill: rgb(255,128,0); fill-rule: nonzero; opacity: 1;"  points="160,0 -160,0 " />
</g>
<g transform="matrix(1 0 0 1 322.5 227.5)" id="id-9b84ec"  >
<polygon style="stroke: rgb(255,0,0); stroke-width: 5; stroke-dasharray: none; stroke-linecap: butt; stroke-dashoffset: 0; stroke-linejoin: miter; stroke-miterlimit: 4; fill: rgb(255,128,0); fill-rule: nonzero; opacity: 1;"  points="0,-225 0,225 " />
</g>
<g transform="matrix(1 0 0 1 947.5 2.5)" id="id-41f409"  >
<polygon style="stroke: rgb(255,0,0); stroke-width: 5; stroke-dasharray: none; stroke-linecap: butt; stroke-dashoffset: 0; stroke-linejoin: miter; stroke-miterlimit: 4; fill: rgb(255,128,0); fill-rule: nonzero; opacity: 1;"  points="625,0 -625,0 " />
</g>
<g transform="matrix(1 0 0 1 652 52)" id="id-a45dd2"  >
<polygon style="stroke: rgb(255,0,0); stroke-width: 4; stroke-dasharray: none; stroke-linecap: butt; stroke-dashoffset: 0; stroke-linejoin: miter; stroke-miterlimit: 4; fill: rgb(255,128,0); fill-rule: nonzero; opacity: 1;"  points="0,-50 0,50 " />
</g>
<g transform="matrix(1 0 0 1 882 52)" id="id-e98978"  >
<polygon style="stroke: rgb(255,0,0); stroke-width: 4; stroke-dasharray: none; stroke-linecap: butt; stroke-dashoffset: 0; stroke-linejoin: miter; stroke-miterlimit: 4; fill: rgb(255,128,0); fill-rule: nonzero; opacity: 1;"  points="0,-50 0,50 " />
</g>
<g transform="matrix(1 0 0 1 1112 52)" id="id-b80683"  >
<polygon style="stroke: rgb(255,0,0); stroke-width: 4; stroke-dasharray: none; stroke-linecap: butt; stroke-dashoffset: 0; stroke-linejoin: miter; stroke-miterlimit: 4; fill: rgb(255,128,0); fill-rule: nonzero; opacity: 1;"  points="0,-50 0,50 " />
</g>
<g transform="matrix(1 0 0 1 1342 52)" id="id-db3f7c"  >
<polygon style="stroke: rgb(255,0,0); stroke-width: 4; stroke-dasharray: none; stroke-linecap: butt; stroke-dashoffset: 0; stroke-linejoin: miter; stroke-miterlimit: 4; fill: rgb(255,128,0); fill-rule: nonzero; opacity: 1;"  points="0,-50 0,50 " />
</g>
</svg>