<svg xmlns="http://www.w3.org/2000/svg" width="60" height="60"><g transform="matrix(1 0 0 1 30 30)" id="id-1702366737349-3"  >
<rect style="stroke: rgb(255,255,255); stroke-width: 0; stroke-dasharray: none; stroke-linecap: butt; stroke-dashoffset: 0; stroke-linejoin: miter; stroke-miterlimit: 4; fill: rgb(0,255,0); fill-rule: nonzero; opacity: 1;"  x="-30" y="-30" rx="0" ry="0" width="60" height="60" />
</g>
<g transform="matrix(1 0 0 1 30 30)" id="id-1702366753304-4"  >
<polygon style="stroke: rgb(255,255,255); stroke-width: 5; stroke-dasharray: none; stroke-linecap: butt; stroke-dashoffset: 0; stroke-linejoin: miter; stroke-miterlimit: 4; fill: rgb(255,255,255); fill-rule: nonzero; opacity: 1;"  points="27.5,-27.5 -27.5,27.5 " />
</g>
<g transform="matrix(1 0 0 1 43 39)" id="id-1702366850272-5"  >
<polygon style="stroke: rgb(255,255,255); stroke-width: 6; stroke-dasharray: none; stroke-linecap: butt; stroke-dashoffset: 0; stroke-linejoin: miter; stroke-miterlimit: 4; fill: rgb(0,255,0); fill-rule: nonzero; opacity: 1;"  points="10,0 -10,0 " />
</g>
<g transform="matrix(1 0 0 1 43 49)" id="id-1702366884276-6"  >
<polygon style="stroke: rgb(255,255,255); stroke-width: 6; stroke-dasharray: none; stroke-linecap: butt; stroke-dashoffset: 0; stroke-linejoin: miter; stroke-miterlimit: 4; fill: rgb(0,255,0); fill-rule: nonzero; opacity: 1;"  points="10,0 -10,0 " />
</g>
<g transform="matrix(1 0 0 1 11.5 17.5)" id="id-1702367001089-7"  >
<path d="M -7 0 A 7 7 0 0 1 7 0" style="stroke: rgb(255,255,255); stroke-width: 5; stroke-dasharray: none; stroke-linecap: butt; stroke-dashoffset: 0; stroke-linejoin: miter; stroke-miterlimit: 4; fill: none; fill-rule: nonzero; opacity: 1;"   />
</g>
<g transform="matrix(-1 0 0 -1 24.5 12.5)" id="id-1702367026095-8"  >
<path d="M -7 0 A 7 7 0 0 1 7 0" style="stroke: rgb(255,255,255); stroke-width: 5; stroke-dasharray: none; stroke-linecap: butt; stroke-dashoffset: 0; stroke-linejoin: miter; stroke-miterlimit: 4; fill: rgb(0,255,0); fill-rule: nonzero; opacity: 1;"   />
</g>
</svg>