<svg xmlns="http://www.w3.org/2000/svg" width="1004" height="718"><g transform="matrix(1 0 0 1 502 402)" id="id-1703223436855-0"  >
<polygon style="stroke: rgb(255,255,255); stroke-width: 4; stroke-dasharray: none; stroke-linecap: butt; stroke-dashoffset: 0; stroke-linejoin: miter; stroke-miterlimit: 4; fill: rgb(0,0,0); fill-rule: nonzero; opacity: 1;"  points="500,0 -500,0 " />
</g>
<g transform="matrix(1 0 0 1 316.5 276.5)" id="id-1703223880781-1"  >
<polygon style="stroke: rgb(255,255,255); stroke-width: 3; stroke-dasharray: none; stroke-linecap: butt; stroke-dashoffset: 0; stroke-linejoin: miter; stroke-miterlimit: 4; fill: rgb(0,0,0); fill-rule: nonzero; opacity: 1;"  points="0,-125 0,125 " />
</g>
<g transform="matrix(1 0 0 1 631.5 276.5)" id="id-1703224028963-2"  >
<polygon style="stroke: rgb(255,255,255); stroke-width: 3; stroke-dasharray: none; stroke-linecap: butt; stroke-dashoffset: 0; stroke-linejoin: miter; stroke-miterlimit: 4; fill: rgb(0,0,0); fill-rule: nonzero; opacity: 1;"  points="0,-125 0,125 " />
</g>
<g transform="matrix(1 0 0 1 316.5 144)" id="id-1703224168718-3"  >
<polygon style="stroke: rgb(255,255,255); stroke-width: 3; stroke-dasharray: none; stroke-linecap: butt; stroke-dashoffset: 0; stroke-linejoin: miter; stroke-miterlimit: 4; fill: rgb(255,255,255); fill-rule: nonzero; opacity: 1;"  points="10,-7.5 0,7.5 -10,-7.5 " />
</g>
<g transform="matrix(1 0 0 1 631.5 144)" id="id-1703224257488-6"  >
<polygon style="stroke: rgb(255,255,255); stroke-width: 3; stroke-dasharray: none; stroke-linecap: butt; stroke-dashoffset: 0; stroke-linejoin: miter; stroke-miterlimit: 4; fill: rgb(255,255,255); fill-rule: nonzero; opacity: 1;"  points="10,-7.5 0,7.5 -10,-7.5 " />
</g>
<g transform="matrix(1 0 0 1 71.5 551.5)" id="id-1703224682701-0"  >
<polygon style="stroke: rgb(255,255,255); stroke-width: 3; stroke-dasharray: none; stroke-linecap: butt; stroke-dashoffset: 0; stroke-linejoin: miter; stroke-miterlimit: 4; fill: rgb(0,0,0); fill-rule: nonzero; opacity: 1;"  points="0,-150 0,150 " />
</g>
<g transform="matrix(1 0 0 1 206.5 551.5)" id="id-1703226996242-0"  >
<polygon style="stroke: rgb(255,255,255); stroke-width: 3; stroke-dasharray: none; stroke-linecap: butt; stroke-dashoffset: 0; stroke-linejoin: miter; stroke-miterlimit: 4; fill: rgb(0,0,0); fill-rule: nonzero; opacity: 1;"  points="0,-150 0,150 " />
</g>
<g transform="matrix(1 0 0 1 341.5 551.5)" id="id-1703227083986-1"  >
<polygon style="stroke: rgb(255,255,255); stroke-width: 3; stroke-dasharray: none; stroke-linecap: butt; stroke-dashoffset: 0; stroke-linejoin: miter; stroke-miterlimit: 4; fill: rgb(0,0,0); fill-rule: nonzero; opacity: 1;"  points="0,-150 0,150 " />
</g>
<g transform="matrix(1 0 0 1 476.5 551.5)" id="id-1703227621921-2"  >
<polygon style="stroke: rgb(255,255,255); stroke-width: 3; stroke-dasharray: none; stroke-linecap: butt; stroke-dashoffset: 0; stroke-linejoin: miter; stroke-miterlimit: 4; fill: rgb(0,0,0); fill-rule: nonzero; opacity: 1;"  points="0,-150 0,150 " />
</g>
<g transform="matrix(1 0 0 1 611.5 551.5)" id="id-1703227629686-3"  >
<polygon style="stroke: rgb(255,255,255); stroke-width: 3; stroke-dasharray: none; stroke-linecap: butt; stroke-dashoffset: 0; stroke-linejoin: miter; stroke-miterlimit: 4; fill: rgb(0,0,0); fill-rule: nonzero; opacity: 1;"  points="0,-150 0,150 " />
</g>
<g transform="matrix(1 0 0 1 746.5 551.5)" id="id-1703227638713-4"  >
<polygon style="stroke: rgb(255,255,255); stroke-width: 3; stroke-dasharray: none; stroke-linecap: butt; stroke-dashoffset: 0; stroke-linejoin: miter; stroke-miterlimit: 4; fill: rgb(0,0,0); fill-rule: nonzero; opacity: 1;"  points="0,-150 0,150 " />
</g>
<g transform="matrix(1 0 0 1 881.5 551.5)" id="id-1703227658923-5"  >
<polygon style="stroke: rgb(255,255,255); stroke-width: 3; stroke-dasharray: none; stroke-linecap: butt; stroke-dashoffset: 0; stroke-linejoin: miter; stroke-miterlimit: 4; fill: rgb(0,0,0); fill-rule: nonzero; opacity: 1;"  points="0,-150 0,150 " />
</g>
<g transform="matrix(1 0 0 1 71.5 709)" id="id-1703227895379-6"  >
<polygon style="stroke: rgb(255,255,255); stroke-width: 3; stroke-dasharray: none; stroke-linecap: butt; stroke-dashoffset: 0; stroke-linejoin: miter; stroke-miterlimit: 4; fill: rgb(255,255,255); fill-rule: nonzero; opacity: 1;"  points="10,-7.5 0,7.5 -10,-7.5 " />
</g>
<g transform="matrix(1 0 0 1 206.5 709)" id="id-1703227977388-7"  >
<polygon style="stroke: rgb(255,255,255); stroke-width: 3; stroke-dasharray: none; stroke-linecap: butt; stroke-dashoffset: 0; stroke-linejoin: miter; stroke-miterlimit: 4; fill: rgb(255,255,255); fill-rule: nonzero; opacity: 1;"  points="10,-7.5 0,7.5 -10,-7.5 " />
</g>
<g transform="matrix(1 0 0 1 341.5 709)" id="id-1703227988276-8"  >
<polygon style="stroke: rgb(255,255,255); stroke-width: 3; stroke-dasharray: none; stroke-linecap: butt; stroke-dashoffset: 0; stroke-linejoin: miter; stroke-miterlimit: 4; fill: rgb(255,255,255); fill-rule: nonzero; opacity: 1;"  points="10,-7.5 0,7.5 -10,-7.5 " />
</g>
<g transform="matrix(1 0 0 1 476.5 709)" id="id-1703228001624-10"  >
<polygon style="stroke: rgb(255,255,255); stroke-width: 3; stroke-dasharray: none; stroke-linecap: butt; stroke-dashoffset: 0; stroke-linejoin: miter; stroke-miterlimit: 4; fill: rgb(255,255,255); fill-rule: nonzero; opacity: 1;"  points="10,-7.5 0,7.5 -10,-7.5 " />
</g>
<g transform="matrix(1 0 0 1 611.5 709)" id="id-1703228012757-11"  >
<polygon style="stroke: rgb(255,255,255); stroke-width: 3; stroke-dasharray: none; stroke-linecap: butt; stroke-dashoffset: 0; stroke-linejoin: miter; stroke-miterlimit: 4; fill: rgb(255,255,255); fill-rule: nonzero; opacity: 1;"  points="10,-7.5 0,7.5 -10,-7.5 " />
</g>
<g transform="matrix(1 0 0 1 746.5 709)" id="id-1703228021418-12"  >
<polygon style="stroke: rgb(255,255,255); stroke-width: 3; stroke-dasharray: none; stroke-linecap: butt; stroke-dashoffset: 0; stroke-linejoin: miter; stroke-miterlimit: 4; fill: rgb(255,255,255); fill-rule: nonzero; opacity: 1;"  points="10,-7.5 0,7.5 -10,-7.5 " />
</g>
<g transform="matrix(1 0 0 1 881.5 709)" id="id-1703228026548-13"  >
<polygon style="stroke: rgb(255,255,255); stroke-width: 3; stroke-dasharray: none; stroke-linecap: butt; stroke-dashoffset: 0; stroke-linejoin: miter; stroke-miterlimit: 4; fill: rgb(255,255,255); fill-rule: nonzero; opacity: 1;"  points="10,-7.5 0,7.5 -10,-7.5 " />
</g>
<g transform="matrix(1 0 0 1 47.66 419.06)" style="" id="id-1703228489124-0"  >
		<text xml:space="preserve" font-family="Calibri" font-size="24" font-style="normal" font-weight="bold" style="stroke: none; stroke-width: 1; stroke-dasharray: none; stroke-linecap: butt; stroke-dashoffset: 0; stroke-linejoin: miter; stroke-miterlimit: 4; fill: rgb(255,255,255); fill-rule: nonzero; opacity: 1; white-space: pre;" ><tspan x="-12.16" y="7.54" >01</tspan></text>
</g>
<g transform="matrix(1 0 0 1 182.66 419.06)" style="" id="id-1703228513957-1"  >
		<text xml:space="preserve" font-family="Calibri" font-size="24" font-style="normal" font-weight="bold" style="stroke: none; stroke-width: 1; stroke-dasharray: none; stroke-linecap: butt; stroke-dashoffset: 0; stroke-linejoin: miter; stroke-miterlimit: 4; fill: rgb(255,255,255); fill-rule: nonzero; opacity: 1; white-space: pre;" ><tspan x="-12.16" y="7.54" >02</tspan></text>
</g>
<g transform="matrix(1 0 0 1 317.66 419.06)" style="" id="id-1703228577684-2"  >
		<text xml:space="preserve" font-family="Calibri" font-size="24" font-style="normal" font-weight="bold" style="stroke: none; stroke-width: 1; stroke-dasharray: none; stroke-linecap: butt; stroke-dashoffset: 0; stroke-linejoin: miter; stroke-miterlimit: 4; fill: rgb(255,255,255); fill-rule: nonzero; opacity: 1; white-space: pre;" ><tspan x="-12.16" y="7.54" >03</tspan></text>
</g>
<g transform="matrix(1 0 0 1 452.66 419.06)" style="" id="id-1703228613130-3"  >
		<text xml:space="preserve" font-family="Calibri" font-size="24" font-style="normal" font-weight="bold" style="stroke: none; stroke-width: 1; stroke-dasharray: none; stroke-linecap: butt; stroke-dashoffset: 0; stroke-linejoin: miter; stroke-miterlimit: 4; fill: rgb(255,255,255); fill-rule: nonzero; opacity: 1; white-space: pre;" ><tspan x="-12.16" y="7.54" >04</tspan></text>
</g>
<g transform="matrix(1 0 0 1 587.66 419.06)" style="" id="id-1703228625391-4"  >
		<text xml:space="preserve" font-family="Calibri" font-size="24" font-style="normal" font-weight="bold" style="stroke: none; stroke-width: 1; stroke-dasharray: none; stroke-linecap: butt; stroke-dashoffset: 0; stroke-linejoin: miter; stroke-miterlimit: 4; fill: rgb(255,255,255); fill-rule: nonzero; opacity: 1; white-space: pre;" ><tspan x="-12.16" y="7.54" >05</tspan></text>
</g>
<g transform="matrix(1 0 0 1 722.66 419.06)" style="" id="id-1703228635169-5"  >
		<text xml:space="preserve" font-family="Calibri" font-size="24" font-style="normal" font-weight="bold" style="stroke: none; stroke-width: 1; stroke-dasharray: none; stroke-linecap: butt; stroke-dashoffset: 0; stroke-linejoin: miter; stroke-miterlimit: 4; fill: rgb(255,255,255); fill-rule: nonzero; opacity: 1; white-space: pre;" ><tspan x="-12.16" y="7.54" >06</tspan></text>
</g>
<g transform="matrix(1 0 0 1 857.66 419.06)" style="" id="id-1703228644771-6"  >
		<text xml:space="preserve" font-family="Calibri" font-size="24" font-style="normal" font-weight="bold" style="stroke: none; stroke-width: 1; stroke-dasharray: none; stroke-linecap: butt; stroke-dashoffset: 0; stroke-linejoin: miter; stroke-miterlimit: 4; fill: rgb(255,255,255); fill-rule: nonzero; opacity: 1; white-space: pre;" ><tspan x="-12.16" y="7.54" >07</tspan></text>
</g>
<g transform="matrix(1 0 0 1 72 571.5)" id="id-1703231333958-0"  >
<polygon style="stroke: rgb(255,255,255); stroke-width: 3; stroke-dasharray: none; stroke-linecap: butt; stroke-dashoffset: 0; stroke-linejoin: miter; stroke-miterlimit: 4; fill: rgb(0,0,0); fill-rule: nonzero; opacity: 1;"  points="12.5,5 -12.5,-5 " />
</g>
<g transform="matrix(1 0 0 1 72 581.5)" id="id-1703231414490-1"  >
<polygon style="stroke: rgb(255,255,255); stroke-width: 3; stroke-dasharray: none; stroke-linecap: butt; stroke-dashoffset: 0; stroke-linejoin: miter; stroke-miterlimit: 4; fill: rgb(0,0,0); fill-rule: nonzero; opacity: 1;"  points="12.5,-5 -12.5,5 " />
</g>
<g transform="matrix(1 0 0 1 72 591.5)" id="id-1703231468224-2"  >
<polygon style="stroke: rgb(255,255,255); stroke-width: 3; stroke-dasharray: none; stroke-linecap: butt; stroke-dashoffset: 0; stroke-linejoin: miter; stroke-miterlimit: 4; fill: rgb(0,0,0); fill-rule: nonzero; opacity: 1;"  points="12.5,5 -12.5,-5 " />
</g>
<g transform="matrix(1 0 0 1 72 601.5)" id="id-1703231481091-3"  >
<polygon style="stroke: rgb(255,255,255); stroke-width: 3; stroke-dasharray: none; stroke-linecap: butt; stroke-dashoffset: 0; stroke-linejoin: miter; stroke-miterlimit: 4; fill: rgb(0,0,0); fill-rule: nonzero; opacity: 1;"  points="12.5,-5 -12.5,5 " />
</g>
<g transform="matrix(1 0 0 1 116.82 584.63)" style="" id="id-1703231554332-4"  >
		<text xml:space="preserve" font-family="Calibri" font-size="25" font-style="normal" font-weight="normal" style="stroke: none; stroke-width: 1; stroke-dasharray: none; stroke-linecap: butt; stroke-dashoffset: 0; stroke-linejoin: miter; stroke-miterlimit: 4; fill: rgb(255,255,255); fill-rule: nonzero; opacity: 1; white-space: pre;" ><tspan x="-21.32" y="7.85" >GFD</tspan></text>
</g>
<g transform="matrix(1 0 0 1 207 571.5)" id="id-1703231613126-5"  >
<polygon style="stroke: rgb(255,255,255); stroke-width: 3; stroke-dasharray: none; stroke-linecap: butt; stroke-dashoffset: 0; stroke-linejoin: miter; stroke-miterlimit: 4; fill: rgb(0,0,0); fill-rule: nonzero; opacity: 1;"  points="12.5,5 -12.5,-5 " />
</g>
<g transform="matrix(1 0 0 1 207 581.5)" id="id-1703231634971-6"  >
<polygon style="stroke: rgb(255,255,255); stroke-width: 3; stroke-dasharray: none; stroke-linecap: butt; stroke-dashoffset: 0; stroke-linejoin: miter; stroke-miterlimit: 4; fill: rgb(0,0,0); fill-rule: nonzero; opacity: 1;"  points="12.5,-5 -12.5,5 " />
</g>
<g transform="matrix(1 0 0 1 207 591.5)" id="id-1703231648539-7"  >
<polygon style="stroke: rgb(255,255,255); stroke-width: 3; stroke-dasharray: none; stroke-linecap: butt; stroke-dashoffset: 0; stroke-linejoin: miter; stroke-miterlimit: 4; fill: rgb(0,0,0); fill-rule: nonzero; opacity: 1;"  points="12.5,5 -12.5,-5 " />
</g>
<g transform="matrix(1 0 0 1 207 601.5)" id="id-1703231654343-8"  >
<polygon style="stroke: rgb(255,255,255); stroke-width: 3; stroke-dasharray: none; stroke-linecap: butt; stroke-dashoffset: 0; stroke-linejoin: miter; stroke-miterlimit: 4; fill: rgb(0,0,0); fill-rule: nonzero; opacity: 1;"  points="12.5,-5 -12.5,5 " />
</g>
<g transform="matrix(1 0 0 1 251.82 584.63)" style="" id="id-1703231666433-9"  >
		<text xml:space="preserve" font-family="Calibri" font-size="25" font-style="normal" font-weight="normal" style="stroke: none; stroke-width: 1; stroke-dasharray: none; stroke-linecap: butt; stroke-dashoffset: 0; stroke-linejoin: miter; stroke-miterlimit: 4; fill: rgb(255,255,255); fill-rule: nonzero; opacity: 1; white-space: pre;" ><tspan x="-21.32" y="7.85" >GFD</tspan></text>
</g>
<g transform="matrix(1 0 0 1 342 571.5)" id="id-1703231707684-10"  >
<polygon style="stroke: rgb(255,255,255); stroke-width: 3; stroke-dasharray: none; stroke-linecap: butt; stroke-dashoffset: 0; stroke-linejoin: miter; stroke-miterlimit: 4; fill: rgb(0,0,0); fill-rule: nonzero; opacity: 1;"  points="12.5,5 -12.5,-5 " />
</g>
<g transform="matrix(1 0 0 1 342 581.5)" id="id-1703231714256-11"  >
<polygon style="stroke: rgb(255,255,255); stroke-width: 3; stroke-dasharray: none; stroke-linecap: butt; stroke-dashoffset: 0; stroke-linejoin: miter; stroke-miterlimit: 4; fill: rgb(0,0,0); fill-rule: nonzero; opacity: 1;"  points="12.5,-5 -12.5,5 " />
</g>
<g transform="matrix(1 0 0 1 342 591.5)" id="id-1703231721750-12"  >
<polygon style="stroke: rgb(255,255,255); stroke-width: 3; stroke-dasharray: none; stroke-linecap: butt; stroke-dashoffset: 0; stroke-linejoin: miter; stroke-miterlimit: 4; fill: rgb(0,0,0); fill-rule: nonzero; opacity: 1;"  points="12.5,5 -12.5,-5 " />
</g>
<g transform="matrix(1 0 0 1 342 601.5)" id="id-1703231727521-13"  >
<polygon style="stroke: rgb(255,255,255); stroke-width: 3; stroke-dasharray: none; stroke-linecap: butt; stroke-dashoffset: 0; stroke-linejoin: miter; stroke-miterlimit: 4; fill: rgb(0,0,0); fill-rule: nonzero; opacity: 1;"  points="12.5,-5 -12.5,5 " />
</g>
<g transform="matrix(1 0 0 1 386.82 584.63)" style="" id="id-1703231736218-14"  >
		<text xml:space="preserve" font-family="Calibri" font-size="25" font-style="normal" font-weight="normal" style="stroke: none; stroke-width: 1; stroke-dasharray: none; stroke-linecap: butt; stroke-dashoffset: 0; stroke-linejoin: miter; stroke-miterlimit: 4; fill: rgb(255,255,255); fill-rule: nonzero; opacity: 1; white-space: pre;" ><tspan x="-21.32" y="7.85" >GFD</tspan></text>
</g>
<g transform="matrix(1 0 0 1 477 571.5)" id="id-1703231758330-15"  >
<polygon style="stroke: rgb(255,255,255); stroke-width: 3; stroke-dasharray: none; stroke-linecap: butt; stroke-dashoffset: 0; stroke-linejoin: miter; stroke-miterlimit: 4; fill: rgb(0,0,0); fill-rule: nonzero; opacity: 1;"  points="12.5,5 -12.5,-5 " />
</g>
<g transform="matrix(1 0 0 1 477 581.5)" id="id-1703231764768-16"  >
<polygon style="stroke: rgb(255,255,255); stroke-width: 3; stroke-dasharray: none; stroke-linecap: butt; stroke-dashoffset: 0; stroke-linejoin: miter; stroke-miterlimit: 4; fill: rgb(0,0,0); fill-rule: nonzero; opacity: 1;"  points="12.5,-5 -12.5,5 " />
</g>
<g transform="matrix(1 0 0 1 477 591.5)" id="id-1703231771310-17"  >
<polygon style="stroke: rgb(255,255,255); stroke-width: 3; stroke-dasharray: none; stroke-linecap: butt; stroke-dashoffset: 0; stroke-linejoin: miter; stroke-miterlimit: 4; fill: rgb(0,0,0); fill-rule: nonzero; opacity: 1;"  points="12.5,5 -12.5,-5 " />
</g>
<g transform="matrix(1 0 0 1 477 601.5)" id="id-1703231776292-18"  >
<polygon style="stroke: rgb(255,255,255); stroke-width: 3; stroke-dasharray: none; stroke-linecap: butt; stroke-dashoffset: 0; stroke-linejoin: miter; stroke-miterlimit: 4; fill: rgb(0,0,0); fill-rule: nonzero; opacity: 1;"  points="12.5,-5 -12.5,5 " />
</g>
<g transform="matrix(1 0 0 1 521.82 584.63)" style="" id="id-1703231793416-19"  >
		<text xml:space="preserve" font-family="Calibri" font-size="25" font-style="normal" font-weight="normal" style="stroke: none; stroke-width: 1; stroke-dasharray: none; stroke-linecap: butt; stroke-dashoffset: 0; stroke-linejoin: miter; stroke-miterlimit: 4; fill: rgb(255,255,255); fill-rule: nonzero; opacity: 1; white-space: pre;" ><tspan x="-21.32" y="7.85" >GFD</tspan></text>
</g>
<g transform="matrix(1 0 0 1 612 571.5)" id="id-1703231810355-20"  >
<polygon style="stroke: rgb(255,255,255); stroke-width: 3; stroke-dasharray: none; stroke-linecap: butt; stroke-dashoffset: 0; stroke-linejoin: miter; stroke-miterlimit: 4; fill: rgb(0,0,0); fill-rule: nonzero; opacity: 1;"  points="12.5,5 -12.5,-5 " />
</g>
<g transform="matrix(1 0 0 1 612 581.5)" id="id-1703231826029-22"  >
<polygon style="stroke: rgb(255,255,255); stroke-width: 3; stroke-dasharray: none; stroke-linecap: butt; stroke-dashoffset: 0; stroke-linejoin: miter; stroke-miterlimit: 4; fill: rgb(0,0,0); fill-rule: nonzero; opacity: 1;"  points="12.5,-5 -12.5,5 " />
</g>
<g transform="matrix(1 0 0 1 612 591.5)" id="id-1703231835730-23"  >
<polygon style="stroke: rgb(255,255,255); stroke-width: 3; stroke-dasharray: none; stroke-linecap: butt; stroke-dashoffset: 0; stroke-linejoin: miter; stroke-miterlimit: 4; fill: rgb(0,0,0); fill-rule: nonzero; opacity: 1;"  points="12.5,5 -12.5,-5 " />
</g>
<g transform="matrix(1 0 0 1 612 601.5)" id="id-1703231841419-24"  >
<polygon style="stroke: rgb(255,255,255); stroke-width: 3; stroke-dasharray: none; stroke-linecap: butt; stroke-dashoffset: 0; stroke-linejoin: miter; stroke-miterlimit: 4; fill: rgb(0,0,0); fill-rule: nonzero; opacity: 1;"  points="12.5,-5 -12.5,5 " />
</g>
<g transform="matrix(1 0 0 1 656.82 584.63)" style="" id="id-1703231858588-25"  >
		<text xml:space="preserve" font-family="Calibri" font-size="25" font-style="normal" font-weight="normal" style="stroke: none; stroke-width: 1; stroke-dasharray: none; stroke-linecap: butt; stroke-dashoffset: 0; stroke-linejoin: miter; stroke-miterlimit: 4; fill: rgb(255,255,255); fill-rule: nonzero; opacity: 1; white-space: pre;" ><tspan x="-21.32" y="7.85" >GFD</tspan></text>
</g>
<g transform="matrix(1 0 0 1 747 571.5)" id="id-1703231872128-26"  >
<polygon style="stroke: rgb(255,255,255); stroke-width: 3; stroke-dasharray: none; stroke-linecap: butt; stroke-dashoffset: 0; stroke-linejoin: miter; stroke-miterlimit: 4; fill: rgb(0,0,0); fill-rule: nonzero; opacity: 1;"  points="12.5,5 -12.5,-5 " />
</g>
<g transform="matrix(1 0 0 1 747 581.5)" id="id-1703231877878-27"  >
<polygon style="stroke: rgb(255,255,255); stroke-width: 3; stroke-dasharray: none; stroke-linecap: butt; stroke-dashoffset: 0; stroke-linejoin: miter; stroke-miterlimit: 4; fill: rgb(0,0,0); fill-rule: nonzero; opacity: 1;"  points="12.5,-5 -12.5,5 " />
</g>
<g transform="matrix(1 0 0 1 747 591.5)" id="id-1703231883004-28"  >
<polygon style="stroke: rgb(255,255,255); stroke-width: 3; stroke-dasharray: none; stroke-linecap: butt; stroke-dashoffset: 0; stroke-linejoin: miter; stroke-miterlimit: 4; fill: rgb(0,0,0); fill-rule: nonzero; opacity: 1;"  points="12.5,5 -12.5,-5 " />
</g>
<g transform="matrix(1 0 0 1 747 601.5)" id="id-1703231887800-29"  >
<polygon style="stroke: rgb(255,255,255); stroke-width: 3; stroke-dasharray: none; stroke-linecap: butt; stroke-dashoffset: 0; stroke-linejoin: miter; stroke-miterlimit: 4; fill: rgb(0,0,0); fill-rule: nonzero; opacity: 1;"  points="12.5,-5 -12.5,5 " />
</g>
<g transform="matrix(1 0 0 1 791.82 584.63)" style="" id="id-1703231901174-30"  >
		<text xml:space="preserve" font-family="Calibri" font-size="25" font-style="normal" font-weight="normal" style="stroke: none; stroke-width: 1; stroke-dasharray: none; stroke-linecap: butt; stroke-dashoffset: 0; stroke-linejoin: miter; stroke-miterlimit: 4; fill: rgb(255,255,255); fill-rule: nonzero; opacity: 1; white-space: pre;" ><tspan x="-21.32" y="7.85" >GFD</tspan></text>
</g>
<g transform="matrix(1 0 0 1 882 571.5)" id="id-1703231916188-31"  >
<polygon style="stroke: rgb(255,255,255); stroke-width: 3; stroke-dasharray: none; stroke-linecap: butt; stroke-dashoffset: 0; stroke-linejoin: miter; stroke-miterlimit: 4; fill: rgb(0,0,0); fill-rule: nonzero; opacity: 1;"  points="12.5,5 -12.5,-5 " />
</g>
<g transform="matrix(1 0 0 1 882 581.5)" id="id-1703231923348-32"  >
<polygon style="stroke: rgb(255,255,255); stroke-width: 3; stroke-dasharray: none; stroke-linecap: butt; stroke-dashoffset: 0; stroke-linejoin: miter; stroke-miterlimit: 4; fill: rgb(0,0,0); fill-rule: nonzero; opacity: 1;"  points="12.5,-5 -12.5,5 " />
</g>
<g transform="matrix(1 0 0 1 882 591.5)" id="id-1703231930854-33"  >
<polygon style="stroke: rgb(255,255,255); stroke-width: 3; stroke-dasharray: none; stroke-linecap: butt; stroke-dashoffset: 0; stroke-linejoin: miter; stroke-miterlimit: 4; fill: rgb(0,0,0); fill-rule: nonzero; opacity: 1;"  points="12.5,5 -12.5,-5 " />
</g>
<g transform="matrix(1 0 0 1 882 601.5)" id="id-1703231936073-34"  >
<polygon style="stroke: rgb(255,255,255); stroke-width: 3; stroke-dasharray: none; stroke-linecap: butt; stroke-dashoffset: 0; stroke-linejoin: miter; stroke-miterlimit: 4; fill: rgb(0,0,0); fill-rule: nonzero; opacity: 1;"  points="12.5,-5 -12.5,5 " />
</g>
<g transform="matrix(1 0 0 1 926.82 584.63)" style="" id="id-1703231949768-35"  >
		<text xml:space="preserve" font-family="Calibri" font-size="25" font-style="normal" font-weight="normal" style="stroke: none; stroke-width: 1; stroke-dasharray: none; stroke-linecap: butt; stroke-dashoffset: 0; stroke-linejoin: miter; stroke-miterlimit: 4; fill: rgb(255,255,255); fill-rule: nonzero; opacity: 1; white-space: pre;" ><tspan x="-21.32" y="7.85" >GFD</tspan></text>
</g>
</svg>