<svg xmlns="http://www.w3.org/2000/svg" width="91" height="46"><g transform="matrix(1 0 0 1 45.5 23)" id="id-758fef"  >
<rect style="stroke: rgb(192,192,192); stroke-width: 1; stroke-dasharray: none; stroke-linecap: butt; stroke-dashoffset: 0; stroke-linejoin: miter; stroke-miterlimit: 4; fill: rgb(0,64,128); fill-rule: nonzero; opacity: 1;"  x="-45" y="-22.5" rx="0" ry="0" width="90" height="45" />
</g>
<g transform="matrix(1 0 0 1 33.5 23)" id="id-953d87"  >
<polygon style="stroke: rgb(255,255,0); stroke-width: 4; stroke-dasharray: none; stroke-linecap: butt; stroke-dashoffset: 0; stroke-linejoin: miter; stroke-miterlimit: 4; fill: rgb(0,64,128); fill-rule: nonzero; opacity: 1;"  points="31.5,0 -31.5,0 " />
</g>
<g transform="matrix(1 0 0 1 22 23.5)" id="id-e4cb82"  >
<polygon style="stroke: rgb(255,255,0); stroke-width: 4; stroke-dasharray: none; stroke-linecap: butt; stroke-dashoffset: 0; stroke-linejoin: miter; stroke-miterlimit: 4; fill: rgb(0,64,128); fill-rule: nonzero; opacity: 1;"  points="0,-12.5 0,12.5 " />
</g>
<g transform="matrix(1 0 0 1 67 23)" id="id-da7539"  >
<polygon style="stroke: rgb(255,255,0); stroke-width: 4; stroke-dasharray: none; stroke-linecap: butt; stroke-dashoffset: 0; stroke-linejoin: miter; stroke-miterlimit: 4; fill: rgb(0,64,128); fill-rule: nonzero; opacity: 1;"  points="0,-20 0,20 " />
</g>
<g transform="matrix(1 0 0 1 77 23)" id="id-ca916b"  >
<polygon style="stroke: rgb(255,255,0); stroke-width: 4; stroke-dasharray: none; stroke-linecap: butt; stroke-dashoffset: 0; stroke-linejoin: miter; stroke-miterlimit: 4; fill: rgb(0,64,128); fill-rule: nonzero; opacity: 1;"  points="0,-15 0,15 " />
</g>
<g transform="matrix(1 0 0 1 86 23)" id="id-1db627"  >
<polygon style="stroke: rgb(255,255,0); stroke-width: 4; stroke-dasharray: none; stroke-linecap: butt; stroke-dashoffset: 0; stroke-linejoin: miter; stroke-miterlimit: 4; fill: rgb(0,64,128); fill-rule: nonzero; opacity: 1;"  points="0,-10 0,10 " />
</g>
</svg>