<svg xmlns="http://www.w3.org/2000/svg" width="91" height="46"><g transform="matrix(1 0 0 1 45.5 23)" id="id-f9dba2"  >
<rect style="stroke: rgb(192,192,192); stroke-width: 1; stroke-dasharray: none; stroke-linecap: butt; stroke-dashoffset: 0; stroke-linejoin: miter; stroke-miterlimit: 4; fill: rgb(0,64,128); fill-rule: nonzero; opacity: 1;"  x="-45" y="-22.5" rx="0" ry="0" width="90" height="45" />
</g>
<g transform="matrix(1 0 0 1 12 23)" id="id-bea179"  >
<polygon style="stroke: rgb(255,255,0); stroke-width: 4; stroke-dasharray: none; stroke-linecap: butt; stroke-dashoffset: 0; stroke-linejoin: miter; stroke-miterlimit: 4; fill: rgb(0,64,128); fill-rule: nonzero; opacity: 1;"  points="10,0 -10,0 " />
</g>
<g transform="matrix(1 0 0 1 22 23.5)" id="id-3dcfe4"  >
<polygon style="stroke: rgb(255,255,0); stroke-width: 4; stroke-dasharray: none; stroke-linecap: butt; stroke-dashoffset: 0; stroke-linejoin: miter; stroke-miterlimit: 4; fill: rgb(0,64,128); fill-rule: nonzero; opacity: 1;"  points="0,-12.5 0,12.5 " />
</g>
<g transform="matrix(1 0 0 1 67 23)" id="id-b85243"  >
<polygon style="stroke: rgb(255,255,0); stroke-width: 4; stroke-dasharray: none; stroke-linecap: butt; stroke-dashoffset: 0; stroke-linejoin: miter; stroke-miterlimit: 4; fill: rgb(0,64,128); fill-rule: nonzero; opacity: 1;"  points="0,-20 0,20 " />
</g>
<g transform="matrix(1 0 0 1 77 23)" id="id-48a577"  >
<polygon style="stroke: rgb(255,255,0); stroke-width: 4; stroke-dasharray: none; stroke-linecap: butt; stroke-dashoffset: 0; stroke-linejoin: miter; stroke-miterlimit: 4; fill: rgb(0,64,128); fill-rule: nonzero; opacity: 1;"  points="0,-15 0,15 " />
</g>
<g transform="matrix(1 0 0 1 86 23)" id="id-b4a609"  >
<polygon style="stroke: rgb(255,255,0); stroke-width: 4; stroke-dasharray: none; stroke-linecap: butt; stroke-dashoffset: 0; stroke-linejoin: miter; stroke-miterlimit: 4; fill: rgb(0,64,128); fill-rule: nonzero; opacity: 1;"  points="0,-10 0,10 " />
</g>
<g transform="matrix(1 0 0 1 57 23)" id="id-7e9298"  >
<polygon style="stroke: rgb(255,255,0); stroke-width: 4; stroke-dasharray: none; stroke-linecap: butt; stroke-dashoffset: 0; stroke-linejoin: miter; stroke-miterlimit: 4; fill: rgb(0,64,128); fill-rule: nonzero; opacity: 1;"  points="10,0 -10,0 " />
</g>
<g transform="matrix(1 0 0 1 36.17 23.06)" style="" id="id-8ebc1b"  >
		<text xml:space="preserve" font-family="sans-serif" font-size="24" font-style="normal" font-weight="normal" style="stroke: none; stroke-width: 1; stroke-dasharray: none; stroke-linecap: butt; stroke-dashoffset: 0; stroke-linejoin: miter; stroke-miterlimit: 4; fill: rgb(255,255,0); fill-rule: nonzero; opacity: 1; white-space: pre;" ><tspan x="-6.67" y="7.54" >?</tspan></text>
</g>
</svg>