<svg xmlns="http://www.w3.org/2000/svg" width="873" height="895"><g transform="matrix(1 0 0 1 211.5 46.5)" id="id-0e1cf0"  >
<rect style="stroke: rgb(255,255,255); stroke-width: 3; stroke-dasharray: none; stroke-linecap: butt; stroke-dashoffset: 0; stroke-linejoin: miter; stroke-miterlimit: 4; fill: none; fill-rule: nonzero; opacity: 1;"  x="-60" y="-15" rx="0" ry="0" width="120" height="30" />
</g>
<g transform="matrix(1 0 0 1 211.79 45.63)" style="" id="id-ea2a44"  >
		<text xml:space="preserve" font-family="Calibri" font-size="25" font-style="normal" font-weight="bold" style="stroke: none; stroke-width: 1; stroke-dasharray: none; stroke-linecap: butt; stroke-dashoffset: 0; stroke-linejoin: miter; stroke-miterlimit: 4; fill: rgb(255,255,255); fill-rule: nonzero; opacity: 1; white-space: pre;" ><tspan x="-51.29" y="7.85" >INVERTER</tspan></text>
</g>
<g transform="matrix(1 0 0 1 129 112)" id="id-92695e"  >
<polygon style="stroke: rgb(0,0,0); stroke-width: 0; stroke-dasharray: none; stroke-linecap: butt; stroke-dashoffset: 0; stroke-linejoin: miter; stroke-miterlimit: 4; fill: rgb(0,255,0); fill-rule: nonzero; opacity: 1;"  points="-9,12 -9,-12 9,0 " />
</g>
<g transform="matrix(1 0 0 1 129 422)" id="id-248400"  >
<polygon style="stroke: rgb(0,0,0); stroke-width: 0; stroke-dasharray: none; stroke-linecap: butt; stroke-dashoffset: 0; stroke-linejoin: miter; stroke-miterlimit: 4; fill: rgb(0,255,0); fill-rule: nonzero; opacity: 1;"  points="-9,12 -9,-12 9,0 " />
</g>
<g transform="matrix(1 0 0 1 412 112)" id="id-05764e"  >
<polygon style="stroke: rgb(0,255,0); stroke-width: 4; stroke-dasharray: none; stroke-linecap: butt; stroke-dashoffset: 0; stroke-linejoin: miter; stroke-miterlimit: 4; fill: rgb(0,255,0); fill-rule: nonzero; opacity: 1;"  points="275,0 -275,0 " />
</g>
<g transform="matrix(1 0 0 1 394.5 422)" id="id-595326"  >
<polygon style="stroke: rgb(0,255,0); stroke-width: 4; stroke-dasharray: none; stroke-linecap: butt; stroke-dashoffset: 0; stroke-linejoin: miter; stroke-miterlimit: 4; fill: rgb(0,255,0); fill-rule: nonzero; opacity: 1;"  points="257.5,0 -257.5,0 " />
</g>
<g transform="matrix(1 0 0 1 522 212)" id="id-f867674"  >
<polygon style="stroke: rgb(0,255,0); stroke-width: 4; stroke-dasharray: none; stroke-linecap: butt; stroke-dashoffset: 0; stroke-linejoin: miter; stroke-miterlimit: 4; fill: rgb(0,255,0); fill-rule: nonzero; opacity: 1;"  points="0,-100 0,100 " />
</g>
<g transform="matrix(1 0 0 1 652 367)" id="id-f867679"  >
<polygon style="stroke: rgb(0,255,0); stroke-width: 4; stroke-dasharray: none; stroke-linecap: butt; stroke-dashoffset: 0; stroke-linejoin: miter; stroke-miterlimit: 4; fill: rgb(0,255,0); fill-rule: nonzero; opacity: 1;"  points="0,-55 0,55 " />
</g>
<g transform="matrix(1 0 0 1 587 312)" id="id-86da4b"  >
<polygon style="stroke: rgb(0,255,0); stroke-width: 4; stroke-dasharray: none; stroke-linecap: butt; stroke-dashoffset: 0; stroke-linejoin: miter; stroke-miterlimit: 4; fill: rgb(0,255,0); fill-rule: nonzero; opacity: 1;"  points="65,0 -65,0 " />
</g>
<g transform="matrix(1 0 0 1 697 262)" id="id-1ed634"  >
<polygon style="stroke: rgb(0,255,0); stroke-width: 4; stroke-dasharray: none; stroke-linecap: butt; stroke-dashoffset: 0; stroke-linejoin: miter; stroke-miterlimit: 4; fill: rgb(0,255,0); fill-rule: nonzero; opacity: 1;"  points="10,0 -10,0 " />
</g>
<g transform="matrix(1 0 0 1 720 260)" id="id-74bdc8"  >
<circle style="stroke: rgb(0,255,0); stroke-width: 0; stroke-dasharray: none; stroke-linecap: butt; stroke-dashoffset: 0; stroke-linejoin: miter; stroke-miterlimit: 4; fill: rgb(192,192,192); fill-rule: nonzero; opacity: 1;"  cx="0" cy="0" r="10" />
</g>
<g transform="matrix(1 0 0 1 720 365)" id="id-54f4df"  >
<circle style="stroke: rgb(0,255,0); stroke-width: 0; stroke-dasharray: none; stroke-linecap: butt; stroke-dashoffset: 0; stroke-linejoin: miter; stroke-miterlimit: 4; fill: rgb(192,192,192); fill-rule: nonzero; opacity: 1;"  cx="0" cy="0" r="10" />
</g>
<g transform="matrix(1 0 0 1 790 315)" id="id-c655ab"  >
<circle style="stroke: rgb(0,255,0); stroke-width: 0; stroke-dasharray: none; stroke-linecap: butt; stroke-dashoffset: 0; stroke-linejoin: miter; stroke-miterlimit: 4; fill: rgb(192,192,192); fill-rule: nonzero; opacity: 1;"  cx="0" cy="0" r="10" />
</g>
<g transform="matrix(1 0 0 1 822 315)" id="id-07a3ee"  >
<polygon style="stroke: rgb(0,255,0); stroke-width: 4; stroke-dasharray: none; stroke-linecap: butt; stroke-dashoffset: 0; stroke-linejoin: miter; stroke-miterlimit: 4; fill: rgb(0,255,0); fill-rule: nonzero; opacity: 1;"  points="20,0 -20,0 " />
</g>
<g transform="matrix(1 0 0 1 673.5 514)" id="id-6e94e7"  >
<polygon style="stroke: rgb(0,255,0); stroke-width: 4; stroke-dasharray: none; stroke-linecap: butt; stroke-dashoffset: 0; stroke-linejoin: miter; stroke-miterlimit: 4; fill: rgb(0,255,0); fill-rule: nonzero; opacity: 1;"  points="168.5,0 -168.5,0 " />
</g>
<g transform="matrix(1 0 0 1 511.5 411.5)" id="id-1d4bb4"  >
<rect style="stroke: rgb(255,255,255); stroke-width: 3; stroke-dasharray: 10 10; stroke-linecap: butt; stroke-dashoffset: 0; stroke-linejoin: miter; stroke-miterlimit: 4; fill: none; fill-rule: nonzero; opacity: 1;"  x="-360" y="-380" rx="0" ry="0" width="720" height="760" />
</g>
<g transform="matrix(1 0 0 1 680.5 365)" id="id-ad5d8f"  >
<polygon style="stroke: rgb(0,255,0); stroke-width: 4; stroke-dasharray: none; stroke-linecap: butt; stroke-dashoffset: 0; stroke-linejoin: miter; stroke-miterlimit: 4; fill: rgb(0,255,0); fill-rule: nonzero; opacity: 1;"  points="27.5,0 -27.5,0 " />
</g>
<g transform="matrix(1 0 0 1 505 539)" id="id-e21847"  >
<polygon style="stroke: rgb(0,255,0); stroke-width: 4; stroke-dasharray: none; stroke-linecap: butt; stroke-dashoffset: 0; stroke-linejoin: miter; stroke-miterlimit: 4; fill: rgb(0,255,0); fill-rule: nonzero; opacity: 1;"  points="0,-25 0,25 " />
</g>
<g transform="matrix(1 0 0 1 505 614)" id="id-3f3c73"  >
<polygon style="stroke: rgb(255,255,255); stroke-width: 4; stroke-dasharray: none; stroke-linecap: butt; stroke-dashoffset: 0; stroke-linejoin: miter; stroke-miterlimit: 4; fill: rgb(0,255,0); fill-rule: nonzero; opacity: 1;"  points="0,-50 0,50 " />
</g>
<g transform="matrix(1 0 0 1 512 667)" id="id-785798"  >
<polygon style="stroke: rgb(255,255,255); stroke-width: 4; stroke-dasharray: none; stroke-linecap: butt; stroke-dashoffset: 0; stroke-linejoin: miter; stroke-miterlimit: 4; fill: rgb(0,255,0); fill-rule: nonzero; opacity: 1;"  points="345,0 -345,0 " />
</g>
<g transform="matrix(1 0 0 1 232 887.5)" id="id-175f6b"  >
<polygon style="stroke: rgb(255,255,255); stroke-width: 0; stroke-dasharray: none; stroke-linecap: butt; stroke-dashoffset: 0; stroke-linejoin: miter; stroke-miterlimit: 4; fill: rgb(255,255,255); fill-rule: nonzero; opacity: 1;"  points="10,-7.5 0,7.5 -10,-7.5 " />
</g>
<g transform="matrix(1 0 0 1 362 887.5)" id="id-67126d"  >
<polygon style="stroke: rgb(255,255,255); stroke-width: 0; stroke-dasharray: none; stroke-linecap: butt; stroke-dashoffset: 0; stroke-linejoin: miter; stroke-miterlimit: 4; fill: rgb(255,255,255); fill-rule: nonzero; opacity: 1;"  points="10,-7.5 0,7.5 -10,-7.5 " />
</g>
<g transform="matrix(1 0 0 1 232 774.5)" id="id-4d3a1d"  >
<polygon style="stroke: rgb(255,255,255); stroke-width: 4; stroke-dasharray: none; stroke-linecap: butt; stroke-dashoffset: 0; stroke-linejoin: miter; stroke-miterlimit: 4; fill: rgb(0,255,0); fill-rule: nonzero; opacity: 1;"  points="0,-107.5 0,107.5 " />
</g>
<g transform="matrix(1 0 0 1 362 774.5)" id="id-8ede7a"  >
<polygon style="stroke: rgb(255,255,255); stroke-width: 4; stroke-dasharray: none; stroke-linecap: butt; stroke-dashoffset: 0; stroke-linejoin: miter; stroke-miterlimit: 4; fill: rgb(0,255,0); fill-rule: nonzero; opacity: 1;"  points="0,-107.5 0,107.5 " />
</g>
<g transform="matrix(1 0 0 1 492 774.5)" id="id-9a5b56"  >
<polygon style="stroke: rgb(255,255,255); stroke-width: 4; stroke-dasharray: none; stroke-linecap: butt; stroke-dashoffset: 0; stroke-linejoin: miter; stroke-miterlimit: 4; fill: rgb(0,255,0); fill-rule: nonzero; opacity: 1;"  points="0,-107.5 0,107.5 " />
</g>
<g transform="matrix(1 0 0 1 622 774.5)" id="id-eae711"  >
<polygon style="stroke: rgb(255,255,255); stroke-width: 4; stroke-dasharray: none; stroke-linecap: butt; stroke-dashoffset: 0; stroke-linejoin: miter; stroke-miterlimit: 4; fill: rgb(0,255,0); fill-rule: nonzero; opacity: 1;"  points="0,-107.5 0,107.5 " />
</g>
<g transform="matrix(1 0 0 1 752 774.5)" id="id-64d6b8"  >
<polygon style="stroke: rgb(255,255,255); stroke-width: 4; stroke-dasharray: none; stroke-linecap: butt; stroke-dashoffset: 0; stroke-linejoin: miter; stroke-miterlimit: 4; fill: rgb(0,255,0); fill-rule: nonzero; opacity: 1;"  points="0,-107.5 0,107.5 " />
</g>
<g transform="matrix(1 0 0 1 492 887.5)" id="id-dcf69f"  >
<polygon style="stroke: rgb(255,255,255); stroke-width: 0; stroke-dasharray: none; stroke-linecap: butt; stroke-dashoffset: 0; stroke-linejoin: miter; stroke-miterlimit: 4; fill: rgb(255,255,255); fill-rule: nonzero; opacity: 1;"  points="10,-7.5 0,7.5 -10,-7.5 " />
</g>
<g transform="matrix(1 0 0 1 622 887.5)" id="id-1e732a"  >
<polygon style="stroke: rgb(255,255,255); stroke-width: 0; stroke-dasharray: none; stroke-linecap: butt; stroke-dashoffset: 0; stroke-linejoin: miter; stroke-miterlimit: 4; fill: rgb(255,255,255); fill-rule: nonzero; opacity: 1;"  points="10,-7.5 0,7.5 -10,-7.5 " />
</g>
<g transform="matrix(1 0 0 1 752 887.5)" id="id-331d87"  >
<polygon style="stroke: rgb(255,255,255); stroke-width: 0; stroke-dasharray: none; stroke-linecap: butt; stroke-dashoffset: 0; stroke-linejoin: miter; stroke-miterlimit: 4; fill: rgb(255,255,255); fill-rule: nonzero; opacity: 1;"  points="10,-7.5 0,7.5 -10,-7.5 " />
</g>
<g transform="matrix(1 0 0 1 364 273)" id="id-e0ee78"  >
<rect style="stroke: rgb(255,255,255); stroke-width: 2; stroke-dasharray: none; stroke-linecap: butt; stroke-dashoffset: 0; stroke-linejoin: miter; stroke-miterlimit: 4; fill: none; fill-rule: nonzero; opacity: 1;"  x="-125" y="-50" rx="0" ry="0" width="250" height="100" />
</g>
<g transform="matrix(1 0 0 1 362 360)" id="id-c19aba"  >
<polygon style="stroke: rgb(0,255,0); stroke-width: 4; stroke-dasharray: none; stroke-linecap: butt; stroke-dashoffset: 0; stroke-linejoin: miter; stroke-miterlimit: 4; fill: rgb(0,255,0); fill-rule: nonzero; opacity: 1;"  points="0,-35 0,35 " />
</g>
<g transform="matrix(1 0 0 1 687 187)" id="id-d1a831"  >
<polygon style="stroke: rgb(0,255,0); stroke-width: 4; stroke-dasharray: none; stroke-linecap: butt; stroke-dashoffset: 0; stroke-linejoin: miter; stroke-miterlimit: 4; fill: rgb(0,255,0); fill-rule: nonzero; opacity: 1;"  points="0,-75 0,75 " />
</g>
<g transform="matrix(1 0 0 1 842 415)" id="id-b35c38"  >
<polygon style="stroke: rgb(0,255,0); stroke-width: 4; stroke-dasharray: none; stroke-linecap: butt; stroke-dashoffset: 0; stroke-linejoin: miter; stroke-miterlimit: 4; fill: rgb(192,192,192); fill-rule: nonzero; opacity: 1;"  points="0,-100 0,100 " />
</g>
<g transform="matrix(1 0 0 1 362.92 272.11)" style="" id="id-c9256d"  >
		<text xml:space="preserve" font-family="Calibri" font-size="30" font-style="normal" font-weight="normal" style="stroke: none; stroke-width: 1; stroke-dasharray: none; stroke-linecap: butt; stroke-dashoffset: 0; stroke-linejoin: miter; stroke-miterlimit: 4; fill: rgb(255,255,255); fill-rule: nonzero; opacity: 1; white-space: pre;" ><tspan x="-102.42" y="-10.24" >SYNCHRONIZING</tspan><tspan x="-44.17" y="29.09" >DEVICE</tspan></text>
</g>
<g transform="matrix(1 0 0 1 506.5 272)" id="id-7c43f8"  >
<polygon style="stroke: rgb(0,255,0); stroke-width: 4; stroke-dasharray: none; stroke-linecap: butt; stroke-dashoffset: 0; stroke-linejoin: miter; stroke-miterlimit: 4; fill: rgb(0,255,0); fill-rule: nonzero; opacity: 1;"  points="16.5,0 -16.5,0 " />
</g>
<g transform="matrix(1 0 0 1 718.5 232.45)" style="" id="id-1702431191298-0"  >
		<text xml:space="preserve" font-family="Calibri" font-size="30" font-style="normal" font-weight="bold" style="stroke: none; stroke-width: 1; stroke-dasharray: none; stroke-linecap: butt; stroke-dashoffset: 0; stroke-linejoin: miter; stroke-miterlimit: 4; fill: rgb(255,255,255); fill-rule: nonzero; opacity: 1; white-space: pre;" ><tspan x="-8" y="9.42" >II</tspan></text>
</g>
<g transform="matrix(1 0 0 1 719.5 392.45)" style="" id="id-1702431243412-1"  >
		<text xml:space="preserve" font-family="Calibri" font-size="30" font-style="normal" font-weight="bold" style="stroke: none; stroke-width: 1; stroke-dasharray: none; stroke-linecap: butt; stroke-dashoffset: 0; stroke-linejoin: miter; stroke-miterlimit: 4; fill: rgb(255,255,255); fill-rule: nonzero; opacity: 1; white-space: pre;" ><tspan x="-4" y="9.42" >I</tspan></text>
</g>
</svg>