<svg xmlns="http://www.w3.org/2000/svg" width="97" height="100"><g transform="matrix(1 0 0 1 58.5 53.5)" id="id-1702015501937-2"  >
<rect style="stroke: rgb(128,0,128); stroke-width: 7; stroke-dasharray: none; stroke-linecap: butt; stroke-dashoffset: 0; stroke-linejoin: miter; stroke-miterlimit: 4; fill: rgb(0,0,0); fill-rule: nonzero; opacity: 1;"  x="-35" y="-30" rx="0" ry="0" width="70" height="60" />
</g>
<g transform="matrix(1 0 0 1 42.5 22.5)" id="id-1702015643305-3"  >
<polygon style="stroke: rgb(128,0,128); stroke-width: 5; stroke-dasharray: none; stroke-linecap: butt; stroke-dashoffset: 0; stroke-linejoin: miter; stroke-miterlimit: 4; fill: rgb(0,0,0); fill-rule: nonzero; opacity: 1;"  points="0,-15 0,15 " />
</g>
<g transform="matrix(1 0 0 1 72.5 82.5)" id="id-1702015902021-4"  >
<polygon style="stroke: rgb(128,0,128); stroke-width: 5; stroke-dasharray: none; stroke-linecap: butt; stroke-dashoffset: 0; stroke-linejoin: miter; stroke-miterlimit: 4; fill: rgb(0,0,0); fill-rule: nonzero; opacity: 1;"  points="0,-15 0,15 " />
</g>
<g transform="matrix(1 0 0 1 57 23)" id="id-1702016049149-5"  >
<polygon style="stroke: rgb(128,0,128); stroke-width: 0; stroke-dasharray: none; stroke-linecap: butt; stroke-dashoffset: 0; stroke-linejoin: miter; stroke-miterlimit: 4; fill: rgb(128,0,128); fill-rule: nonzero; opacity: 1;"  points="17,-17 -17,0 17,17 " />
</g>
<g transform="matrix(1 0 0 1 57 83)" id="id-1702016534337-6"  >
<polygon style="stroke: rgb(128,0,128); stroke-width: 0; stroke-dasharray: none; stroke-linecap: butt; stroke-dashoffset: 0; stroke-linejoin: miter; stroke-miterlimit: 4; fill: rgb(128,0,128); fill-rule: nonzero; opacity: 1;"  points="-17,17 -17,-17 17,0 " />
</g>
<g transform="matrix(1 0 0 1 33 14)" id="id-1702017424553-7"  >
<polygon style="stroke: rgb(128,0,128); stroke-width: 5; stroke-dasharray: none; stroke-linecap: butt; stroke-dashoffset: 0; stroke-linejoin: miter; stroke-miterlimit: 4; fill: rgb(0,0,0); fill-rule: nonzero; opacity: 1;"  points="-6.5,-6.5 6.5,6.5 " />
</g>
<g transform="matrix(1 0 0 1 82 91)" id="id-1702017553184-8"  >
<polygon style="stroke: rgb(128,0,128); stroke-width: 5; stroke-dasharray: none; stroke-linecap: butt; stroke-dashoffset: 0; stroke-linejoin: miter; stroke-miterlimit: 4; fill: rgb(0,0,0); fill-rule: nonzero; opacity: 1;"  points="-6.5,-6.5 6.5,6.5 " />
</g>
</svg>