<svg xmlns="http://www.w3.org/2000/svg" width="73" height="424"><g transform="matrix(1 0 0 1 37 52)" id="id-cd75e1"  >
<polygon style="stroke: rgb(255,255,255); stroke-width: 4; stroke-dasharray: none; stroke-linecap: butt; stroke-dashoffset: 0; stroke-linejoin: miter; stroke-miterlimit: 4; fill: rgb(255,0,0); fill-rule: nonzero; opacity: 1;"  points="0,-50 0,50 " />
</g>
<g transform="matrix(1 0 0 1 37 252)" id="id-490617"  >
<polygon style="stroke: rgb(255,255,255); stroke-width: 4; stroke-dasharray: none; stroke-linecap: butt; stroke-dashoffset: 0; stroke-linejoin: miter; stroke-miterlimit: 4; fill: rgb(255,0,0); fill-rule: nonzero; opacity: 1;"  points="0,-15 0,15 " />
</g>
<g transform="matrix(1 0 0 1 8.5 277.5)" id="id-a873dd"  >
<polygon style="stroke: rgb(255,255,255); stroke-width: 7; stroke-dasharray: none; stroke-linecap: butt; stroke-dashoffset: 0; stroke-linejoin: miter; stroke-miterlimit: 4; fill: rgb(255,0,0); fill-rule: nonzero; opacity: 1;"  points="-5,-9 5,9 " />
</g>
<g transform="matrix(1 0 0 1 16.5 277.5)" id="id-2442b3"  >
<polygon style="stroke: rgb(255,255,255); stroke-width: 7; stroke-dasharray: none; stroke-linecap: butt; stroke-dashoffset: 0; stroke-linejoin: miter; stroke-miterlimit: 4; fill: rgb(255,0,0); fill-rule: nonzero; opacity: 1;"  points="5,-9 -5,9 " />
</g>
<g transform="matrix(1 0 0 1 24.5 277.5)" id="id-ba87ed"  >
<polygon style="stroke: rgb(255,255,255); stroke-width: 7; stroke-dasharray: none; stroke-linecap: butt; stroke-dashoffset: 0; stroke-linejoin: miter; stroke-miterlimit: 4; fill: rgb(255,0,0); fill-rule: nonzero; opacity: 1;"  points="-5,-9 5,9 " />
</g>
<g transform="matrix(1 0 0 1 32.5 277.5)" id="id-274945"  >
<polygon style="stroke: rgb(255,255,255); stroke-width: 7; stroke-dasharray: none; stroke-linecap: butt; stroke-dashoffset: 0; stroke-linejoin: miter; stroke-miterlimit: 4; fill: rgb(255,0,0); fill-rule: nonzero; opacity: 1;"  points="5,-9 -5,9 " />
</g>
<g transform="matrix(1 0 0 1 40.5 277.5)" id="id-137ee3"  >
<polygon style="stroke: rgb(255,255,255); stroke-width: 7; stroke-dasharray: none; stroke-linecap: butt; stroke-dashoffset: 0; stroke-linejoin: miter; stroke-miterlimit: 4; fill: rgb(255,0,0); fill-rule: nonzero; opacity: 1;"  points="-5,-9 5,9 " />
</g>
<g transform="matrix(1 0 0 1 48.5 277.5)" id="id-88ba6c"  >
<polygon style="stroke: rgb(255,255,255); stroke-width: 7; stroke-dasharray: none; stroke-linecap: butt; stroke-dashoffset: 0; stroke-linejoin: miter; stroke-miterlimit: 4; fill: rgb(255,0,0); fill-rule: nonzero; opacity: 1;"  points="5,-9 -5,9 " />
</g>
<g transform="matrix(1 0 0 1 56.5 277.5)" id="id-ea386f"  >
<polygon style="stroke: rgb(255,255,255); stroke-width: 7; stroke-dasharray: none; stroke-linecap: butt; stroke-dashoffset: 0; stroke-linejoin: miter; stroke-miterlimit: 4; fill: rgb(255,0,0); fill-rule: nonzero; opacity: 1;"  points="-5,-9 5,9 " />
</g>
<g transform="matrix(1 0 0 1 64.5 277.5)" id="id-148278"  >
<polygon style="stroke: rgb(255,255,255); stroke-width: 7; stroke-dasharray: none; stroke-linecap: butt; stroke-dashoffset: 0; stroke-linejoin: miter; stroke-miterlimit: 4; fill: rgb(255,0,0); fill-rule: nonzero; opacity: 1;"  points="5,-9 -5,9 " />
</g>
<g transform="matrix(1 0 0 1 8.5 302.5)" id="id-828f8a"  >
<polygon style="stroke: rgb(255,255,255); stroke-width: 7; stroke-dasharray: none; stroke-linecap: butt; stroke-dashoffset: 0; stroke-linejoin: miter; stroke-miterlimit: 4; fill: rgb(255,0,0); fill-rule: nonzero; opacity: 1;"  points="5,-9 -5,9 " />
</g>
<g transform="matrix(1 0 0 1 16.5 302.5)" id="id-337dad"  >
<polygon style="stroke: rgb(255,255,255); stroke-width: 7; stroke-dasharray: none; stroke-linecap: butt; stroke-dashoffset: 0; stroke-linejoin: miter; stroke-miterlimit: 4; fill: rgb(255,0,0); fill-rule: nonzero; opacity: 1;"  points="-5,-9 5,9 " />
</g>
<g transform="matrix(1 0 0 1 24.5 302.5)" id="id-c03432"  >
<polygon style="stroke: rgb(255,255,255); stroke-width: 7; stroke-dasharray: none; stroke-linecap: butt; stroke-dashoffset: 0; stroke-linejoin: miter; stroke-miterlimit: 4; fill: rgb(255,0,0); fill-rule: nonzero; opacity: 1;"  points="5,-9 -5,9 " />
</g>
<g transform="matrix(1 0 0 1 32.5 302.5)" id="id-9fe5b6"  >
<polygon style="stroke: rgb(255,255,255); stroke-width: 7; stroke-dasharray: none; stroke-linecap: butt; stroke-dashoffset: 0; stroke-linejoin: miter; stroke-miterlimit: 4; fill: rgb(255,0,0); fill-rule: nonzero; opacity: 1;"  points="-5,-9 5,9 " />
</g>
<g transform="matrix(1 0 0 1 40.5 302.5)" id="id-d7bb3c"  >
<polygon style="stroke: rgb(255,255,255); stroke-width: 7; stroke-dasharray: none; stroke-linecap: butt; stroke-dashoffset: 0; stroke-linejoin: miter; stroke-miterlimit: 4; fill: rgb(255,0,0); fill-rule: nonzero; opacity: 1;"  points="5,-9 -5,9 " />
</g>
<g transform="matrix(1 0 0 1 48.5 302.5)" id="id-16af3a"  >
<polygon style="stroke: rgb(255,255,255); stroke-width: 7; stroke-dasharray: none; stroke-linecap: butt; stroke-dashoffset: 0; stroke-linejoin: miter; stroke-miterlimit: 4; fill: rgb(255,0,0); fill-rule: nonzero; opacity: 1;"  points="-5,-9 5,9 " />
</g>
<g transform="matrix(1 0 0 1 56.5 302.5)" id="id-6bab4a"  >
<polygon style="stroke: rgb(255,255,255); stroke-width: 7; stroke-dasharray: none; stroke-linecap: butt; stroke-dashoffset: 0; stroke-linejoin: miter; stroke-miterlimit: 4; fill: rgb(255,0,0); fill-rule: nonzero; opacity: 1;"  points="5,-9 -5,9 " />
</g>
<g transform="matrix(1 0 0 1 64.5 302.5)" id="id-f6fb42"  >
<polygon style="stroke: rgb(255,255,255); stroke-width: 7; stroke-dasharray: none; stroke-linecap: butt; stroke-dashoffset: 0; stroke-linejoin: miter; stroke-miterlimit: 4; fill: rgb(255,0,0); fill-rule: nonzero; opacity: 1;"  points="-5,-9 5,9 " />
</g>
<g transform="matrix(1 0 0 1 37 357)" id="id-2c213b"  >
<polygon style="stroke: rgb(255,255,255); stroke-width: 4; stroke-dasharray: none; stroke-linecap: butt; stroke-dashoffset: 0; stroke-linejoin: miter; stroke-miterlimit: 4; fill: rgb(255,0,0); fill-rule: nonzero; opacity: 1;"  points="0,-50 0,50 " />
</g>
<g transform="matrix(1 0 0 1 37 414.5)" id="id-6f9706"  >
<polygon style="stroke: rgb(255,255,255); stroke-width: 4; stroke-dasharray: none; stroke-linecap: butt; stroke-dashoffset: 0; stroke-linejoin: miter; stroke-miterlimit: 4; fill: rgb(255,255,255); fill-rule: nonzero; opacity: 1;"  points="10,-7.5 0,7.5 -10,-7.5 " />
</g>
</svg>