<svg xmlns="http://www.w3.org/2000/svg" width="73" height="424"><g transform="matrix(1 0 0 1 37 52)" id="id-0c65ed"  >
<polygon style="stroke: rgb(255,128,128); stroke-width: 4; stroke-dasharray: none; stroke-linecap: butt; stroke-dashoffset: 0; stroke-linejoin: miter; stroke-miterlimit: 4; fill: rgb(255,128,128); fill-rule: nonzero; opacity: 1;"  points="0,-50 0,50 " />
</g>
<g transform="matrix(1 0 0 1 37 252)" id="id-6c5d7b"  >
<polygon style="stroke: rgb(255,128,128); stroke-width: 4; stroke-dasharray: none; stroke-linecap: butt; stroke-dashoffset: 0; stroke-linejoin: miter; stroke-miterlimit: 4; fill: rgb(255,128,128); fill-rule: nonzero; opacity: 1;"  points="0,-15 0,15 " />
</g>
<g transform="matrix(1 0 0 1 8.5 277.5)" id="id-76dbb6"  >
<polygon style="stroke: rgb(255,128,128); stroke-width: 7; stroke-dasharray: none; stroke-linecap: butt; stroke-dashoffset: 0; stroke-linejoin: miter; stroke-miterlimit: 4; fill: rgb(255,128,128); fill-rule: nonzero; opacity: 1;"  points="-5,-9 5,9 " />
</g>
<g transform="matrix(1 0 0 1 16.5 277.5)" id="id-7f31e7"  >
<polygon style="stroke: rgb(255,128,128); stroke-width: 7; stroke-dasharray: none; stroke-linecap: butt; stroke-dashoffset: 0; stroke-linejoin: miter; stroke-miterlimit: 4; fill: rgb(255,128,128); fill-rule: nonzero; opacity: 1;"  points="5,-9 -5,9 " />
</g>
<g transform="matrix(1 0 0 1 24.5 277.5)" id="id-b94a94"  >
<polygon style="stroke: rgb(255,128,128); stroke-width: 7; stroke-dasharray: none; stroke-linecap: butt; stroke-dashoffset: 0; stroke-linejoin: miter; stroke-miterlimit: 4; fill: rgb(255,128,128); fill-rule: nonzero; opacity: 1;"  points="-5,-9 5,9 " />
</g>
<g transform="matrix(1 0 0 1 32.5 277.5)" id="id-dd106c"  >
<polygon style="stroke: rgb(255,128,128); stroke-width: 7; stroke-dasharray: none; stroke-linecap: butt; stroke-dashoffset: 0; stroke-linejoin: miter; stroke-miterlimit: 4; fill: rgb(255,128,128); fill-rule: nonzero; opacity: 1;"  points="5,-9 -5,9 " />
</g>
<g transform="matrix(1 0 0 1 40.5 277.5)" id="id-9debde"  >
<polygon style="stroke: rgb(255,128,128); stroke-width: 7; stroke-dasharray: none; stroke-linecap: butt; stroke-dashoffset: 0; stroke-linejoin: miter; stroke-miterlimit: 4; fill: rgb(255,128,128); fill-rule: nonzero; opacity: 1;"  points="-5,-9 5,9 " />
</g>
<g transform="matrix(1 0 0 1 48.5 277.5)" id="id-99d17f"  >
<polygon style="stroke: rgb(255,128,128); stroke-width: 7; stroke-dasharray: none; stroke-linecap: butt; stroke-dashoffset: 0; stroke-linejoin: miter; stroke-miterlimit: 4; fill: rgb(255,128,128); fill-rule: nonzero; opacity: 1;"  points="5,-9 -5,9 " />
</g>
<g transform="matrix(1 0 0 1 56.5 277.5)" id="id-f1df4c"  >
<polygon style="stroke: rgb(255,128,128); stroke-width: 7; stroke-dasharray: none; stroke-linecap: butt; stroke-dashoffset: 0; stroke-linejoin: miter; stroke-miterlimit: 4; fill: rgb(255,128,128); fill-rule: nonzero; opacity: 1;"  points="-5,-9 5,9 " />
</g>
<g transform="matrix(1 0 0 1 64.5 277.5)" id="id-a9022a"  >
<polygon style="stroke: rgb(255,128,128); stroke-width: 7; stroke-dasharray: none; stroke-linecap: butt; stroke-dashoffset: 0; stroke-linejoin: miter; stroke-miterlimit: 4; fill: rgb(255,128,128); fill-rule: nonzero; opacity: 1;"  points="5,-9 -5,9 " />
</g>
<g transform="matrix(1 0 0 1 8.5 302.5)" id="id-e7c386"  >
<polygon style="stroke: rgb(255,128,128); stroke-width: 7; stroke-dasharray: none; stroke-linecap: butt; stroke-dashoffset: 0; stroke-linejoin: miter; stroke-miterlimit: 4; fill: rgb(255,128,128); fill-rule: nonzero; opacity: 1;"  points="5,-9 -5,9 " />
</g>
<g transform="matrix(1 0 0 1 16.5 302.5)" id="id-fbe04c"  >
<polygon style="stroke: rgb(255,128,128); stroke-width: 7; stroke-dasharray: none; stroke-linecap: butt; stroke-dashoffset: 0; stroke-linejoin: miter; stroke-miterlimit: 4; fill: rgb(255,128,128); fill-rule: nonzero; opacity: 1;"  points="-5,-9 5,9 " />
</g>
<g transform="matrix(1 0 0 1 24.5 302.5)" id="id-759a48"  >
<polygon style="stroke: rgb(255,128,128); stroke-width: 7; stroke-dasharray: none; stroke-linecap: butt; stroke-dashoffset: 0; stroke-linejoin: miter; stroke-miterlimit: 4; fill: rgb(255,128,128); fill-rule: nonzero; opacity: 1;"  points="5,-9 -5,9 " />
</g>
<g transform="matrix(1 0 0 1 32.5 302.5)" id="id-72bd67"  >
<polygon style="stroke: rgb(255,128,128); stroke-width: 7; stroke-dasharray: none; stroke-linecap: butt; stroke-dashoffset: 0; stroke-linejoin: miter; stroke-miterlimit: 4; fill: rgb(255,128,128); fill-rule: nonzero; opacity: 1;"  points="-5,-9 5,9 " />
</g>
<g transform="matrix(1 0 0 1 40.5 302.5)" id="id-56a1c0"  >
<polygon style="stroke: rgb(255,128,128); stroke-width: 7; stroke-dasharray: none; stroke-linecap: butt; stroke-dashoffset: 0; stroke-linejoin: miter; stroke-miterlimit: 4; fill: rgb(255,128,128); fill-rule: nonzero; opacity: 1;"  points="5,-9 -5,9 " />
</g>
<g transform="matrix(1 0 0 1 48.5 302.5)" id="id-13a4d4"  >
<polygon style="stroke: rgb(255,128,128); stroke-width: 7; stroke-dasharray: none; stroke-linecap: butt; stroke-dashoffset: 0; stroke-linejoin: miter; stroke-miterlimit: 4; fill: rgb(255,128,128); fill-rule: nonzero; opacity: 1;"  points="-5,-9 5,9 " />
</g>
<g transform="matrix(1 0 0 1 56.5 302.5)" id="id-f370f2"  >
<polygon style="stroke: rgb(255,128,128); stroke-width: 7; stroke-dasharray: none; stroke-linecap: butt; stroke-dashoffset: 0; stroke-linejoin: miter; stroke-miterlimit: 4; fill: rgb(255,128,128); fill-rule: nonzero; opacity: 1;"  points="5,-9 -5,9 " />
</g>
<g transform="matrix(1 0 0 1 64.5 302.5)" id="id-d545f7"  >
<polygon style="stroke: rgb(255,128,128); stroke-width: 7; stroke-dasharray: none; stroke-linecap: butt; stroke-dashoffset: 0; stroke-linejoin: miter; stroke-miterlimit: 4; fill: rgb(255,128,128); fill-rule: nonzero; opacity: 1;"  points="-5,-9 5,9 " />
</g>
<g transform="matrix(1 0 0 1 37 357)" id="id-4e3977"  >
<polygon style="stroke: rgb(255,128,128); stroke-width: 4; stroke-dasharray: none; stroke-linecap: butt; stroke-dashoffset: 0; stroke-linejoin: miter; stroke-miterlimit: 4; fill: rgb(255,128,128); fill-rule: nonzero; opacity: 1;"  points="0,-50 0,50 " />
</g>
<g transform="matrix(1 0 0 1 37 414.5)" id="id-b0c83f"  >
<polygon style="stroke: rgb(255,128,128); stroke-width: 4; stroke-dasharray: none; stroke-linecap: butt; stroke-dashoffset: 0; stroke-linejoin: miter; stroke-miterlimit: 4; fill: rgb(255,128,128); fill-rule: nonzero; opacity: 1;"  points="10,-7.5 0,7.5 -10,-7.5 " />
</g>
</svg>