<svg xmlns="http://www.w3.org/2000/svg" width="73" height="424"><g transform="matrix(1 0 0 1 37 52)" id="id-d59d92"  >
<polygon style="stroke: rgb(255,0,0); stroke-width: 4; stroke-dasharray: none; stroke-linecap: butt; stroke-dashoffset: 0; stroke-linejoin: miter; stroke-miterlimit: 4; fill: rgb(255,0,0); fill-rule: nonzero; opacity: 1;"  points="0,-50 0,50 " />
</g>
<g transform="matrix(1 0 0 1 37 252)" id="id-79b8c5"  >
<polygon style="stroke: rgb(255,0,0); stroke-width: 4; stroke-dasharray: none; stroke-linecap: butt; stroke-dashoffset: 0; stroke-linejoin: miter; stroke-miterlimit: 4; fill: rgb(255,0,0); fill-rule: nonzero; opacity: 1;"  points="0,-15 0,15 " />
</g>
<g transform="matrix(1 0 0 1 8.5 277.5)" id="id-8f1069"  >
<polygon style="stroke: rgb(255,0,0); stroke-width: 7; stroke-dasharray: none; stroke-linecap: butt; stroke-dashoffset: 0; stroke-linejoin: miter; stroke-miterlimit: 4; fill: rgb(255,0,0); fill-rule: nonzero; opacity: 1;"  points="-5,-9 5,9 " />
</g>
<g transform="matrix(1 0 0 1 16.5 277.5)" id="id-633d50"  >
<polygon style="stroke: rgb(255,0,0); stroke-width: 7; stroke-dasharray: none; stroke-linecap: butt; stroke-dashoffset: 0; stroke-linejoin: miter; stroke-miterlimit: 4; fill: rgb(255,0,0); fill-rule: nonzero; opacity: 1;"  points="5,-9 -5,9 " />
</g>
<g transform="matrix(1 0 0 1 24.5 277.5)" id="id-43172f"  >
<polygon style="stroke: rgb(255,0,0); stroke-width: 7; stroke-dasharray: none; stroke-linecap: butt; stroke-dashoffset: 0; stroke-linejoin: miter; stroke-miterlimit: 4; fill: rgb(255,0,0); fill-rule: nonzero; opacity: 1;"  points="-5,-9 5,9 " />
</g>
<g transform="matrix(1 0 0 1 32.5 277.5)" id="id-0e1131"  >
<polygon style="stroke: rgb(255,0,0); stroke-width: 7; stroke-dasharray: none; stroke-linecap: butt; stroke-dashoffset: 0; stroke-linejoin: miter; stroke-miterlimit: 4; fill: rgb(255,0,0); fill-rule: nonzero; opacity: 1;"  points="5,-9 -5,9 " />
</g>
<g transform="matrix(1 0 0 1 40.5 277.5)" id="id-01fcf8"  >
<polygon style="stroke: rgb(255,0,0); stroke-width: 7; stroke-dasharray: none; stroke-linecap: butt; stroke-dashoffset: 0; stroke-linejoin: miter; stroke-miterlimit: 4; fill: rgb(255,0,0); fill-rule: nonzero; opacity: 1;"  points="-5,-9 5,9 " />
</g>
<g transform="matrix(1 0 0 1 48.5 277.5)" id="id-fdc2c2"  >
<polygon style="stroke: rgb(255,0,0); stroke-width: 7; stroke-dasharray: none; stroke-linecap: butt; stroke-dashoffset: 0; stroke-linejoin: miter; stroke-miterlimit: 4; fill: rgb(255,0,0); fill-rule: nonzero; opacity: 1;"  points="5,-9 -5,9 " />
</g>
<g transform="matrix(1 0 0 1 56.5 277.5)" id="id-50f207"  >
<polygon style="stroke: rgb(255,0,0); stroke-width: 7; stroke-dasharray: none; stroke-linecap: butt; stroke-dashoffset: 0; stroke-linejoin: miter; stroke-miterlimit: 4; fill: rgb(255,0,0); fill-rule: nonzero; opacity: 1;"  points="-5,-9 5,9 " />
</g>
<g transform="matrix(1 0 0 1 64.5 277.5)" id="id-16ff91"  >
<polygon style="stroke: rgb(255,0,0); stroke-width: 7; stroke-dasharray: none; stroke-linecap: butt; stroke-dashoffset: 0; stroke-linejoin: miter; stroke-miterlimit: 4; fill: rgb(255,0,0); fill-rule: nonzero; opacity: 1;"  points="5,-9 -5,9 " />
</g>
<g transform="matrix(1 0 0 1 8.5 302.5)" id="id-ca9d8c"  >
<polygon style="stroke: rgb(255,0,0); stroke-width: 7; stroke-dasharray: none; stroke-linecap: butt; stroke-dashoffset: 0; stroke-linejoin: miter; stroke-miterlimit: 4; fill: rgb(255,0,0); fill-rule: nonzero; opacity: 1;"  points="5,-9 -5,9 " />
</g>
<g transform="matrix(1 0 0 1 16.5 302.5)" id="id-265363"  >
<polygon style="stroke: rgb(255,0,0); stroke-width: 7; stroke-dasharray: none; stroke-linecap: butt; stroke-dashoffset: 0; stroke-linejoin: miter; stroke-miterlimit: 4; fill: rgb(255,0,0); fill-rule: nonzero; opacity: 1;"  points="-5,-9 5,9 " />
</g>
<g transform="matrix(1 0 0 1 24.5 302.5)" id="id-379c7d"  >
<polygon style="stroke: rgb(255,0,0); stroke-width: 7; stroke-dasharray: none; stroke-linecap: butt; stroke-dashoffset: 0; stroke-linejoin: miter; stroke-miterlimit: 4; fill: rgb(255,0,0); fill-rule: nonzero; opacity: 1;"  points="5,-9 -5,9 " />
</g>
<g transform="matrix(1 0 0 1 32.5 302.5)" id="id-ddba46"  >
<polygon style="stroke: rgb(255,0,0); stroke-width: 7; stroke-dasharray: none; stroke-linecap: butt; stroke-dashoffset: 0; stroke-linejoin: miter; stroke-miterlimit: 4; fill: rgb(255,0,0); fill-rule: nonzero; opacity: 1;"  points="-5,-9 5,9 " />
</g>
<g transform="matrix(1 0 0 1 40.5 302.5)" id="id-54db71"  >
<polygon style="stroke: rgb(255,0,0); stroke-width: 7; stroke-dasharray: none; stroke-linecap: butt; stroke-dashoffset: 0; stroke-linejoin: miter; stroke-miterlimit: 4; fill: rgb(255,0,0); fill-rule: nonzero; opacity: 1;"  points="5,-9 -5,9 " />
</g>
<g transform="matrix(1 0 0 1 48.5 302.5)" id="id-0ecba3"  >
<polygon style="stroke: rgb(255,0,0); stroke-width: 7; stroke-dasharray: none; stroke-linecap: butt; stroke-dashoffset: 0; stroke-linejoin: miter; stroke-miterlimit: 4; fill: rgb(255,0,0); fill-rule: nonzero; opacity: 1;"  points="-5,-9 5,9 " />
</g>
<g transform="matrix(1 0 0 1 56.5 302.5)" id="id-661efa"  >
<polygon style="stroke: rgb(255,0,0); stroke-width: 7; stroke-dasharray: none; stroke-linecap: butt; stroke-dashoffset: 0; stroke-linejoin: miter; stroke-miterlimit: 4; fill: rgb(255,0,0); fill-rule: nonzero; opacity: 1;"  points="5,-9 -5,9 " />
</g>
<g transform="matrix(1 0 0 1 64.5 302.5)" id="id-e52066"  >
<polygon style="stroke: rgb(255,0,0); stroke-width: 7; stroke-dasharray: none; stroke-linecap: butt; stroke-dashoffset: 0; stroke-linejoin: miter; stroke-miterlimit: 4; fill: rgb(255,0,0); fill-rule: nonzero; opacity: 1;"  points="-5,-9 5,9 " />
</g>
<g transform="matrix(1 0 0 1 37 357)" id="id-a512ed"  >
<polygon style="stroke: rgb(255,0,0); stroke-width: 4; stroke-dasharray: none; stroke-linecap: butt; stroke-dashoffset: 0; stroke-linejoin: miter; stroke-miterlimit: 4; fill: rgb(255,0,0); fill-rule: nonzero; opacity: 1;"  points="0,-50 0,50 " />
</g>
<g transform="matrix(1 0 0 1 37 414.5)" id="id-a86455"  >
<polygon style="stroke: rgb(255,0,0); stroke-width: 4; stroke-dasharray: none; stroke-linecap: butt; stroke-dashoffset: 0; stroke-linejoin: miter; stroke-miterlimit: 4; fill: rgb(255,0,0); fill-rule: nonzero; opacity: 1;"  points="10,-7.5 0,7.5 -10,-7.5 " />
</g>
</svg>