<svg xmlns="http://www.w3.org/2000/svg" width="1002" height="302"><g transform="matrix(1 0 0 1 251 1)" id="id-960ab3"  >
<polygon style="stroke: rgb(16,0,245); stroke-width: 2; stroke-dasharray: none; stroke-linecap: butt; stroke-dashoffset: 0; stroke-linejoin: miter; stroke-miterlimit: 4; fill: rgb(255,234,0); fill-rule: nonzero; opacity: 1;"  points="250,0 -250,0 " />
</g>
<g transform="matrix(1 0 0 1 251 51)" id="id-e8f0a9"  >
<polygon style="stroke: rgb(16,0,245); stroke-width: 2; stroke-dasharray: none; stroke-linecap: butt; stroke-dashoffset: 0; stroke-linejoin: miter; stroke-miterlimit: 4; fill: rgb(255,234,0); fill-rule: nonzero; opacity: 1;"  points="250,0 -250,0 " />
</g>
<g transform="matrix(1 0 0 1 251 101)" id="id-1b6718"  >
<polygon style="stroke: rgb(16,0,245); stroke-width: 2; stroke-dasharray: none; stroke-linecap: butt; stroke-dashoffset: 0; stroke-linejoin: miter; stroke-miterlimit: 4; fill: rgb(255,234,0); fill-rule: nonzero; opacity: 1;"  points="250,0 -250,0 " />
</g>
<g transform="matrix(1 0 0 1 251 151)" id="id-293737"  >
<polygon style="stroke: rgb(16,0,245); stroke-width: 2; stroke-dasharray: none; stroke-linecap: butt; stroke-dashoffset: 0; stroke-linejoin: miter; stroke-miterlimit: 4; fill: rgb(255,234,0); fill-rule: nonzero; opacity: 1;"  points="250,0 -250,0 " />
</g>
<g transform="matrix(1 0 0 1 1 76)" id="id-aa55c4"  >
<polygon style="stroke: rgb(16,0,245); stroke-width: 2; stroke-dasharray: none; stroke-linecap: butt; stroke-dashoffset: 0; stroke-linejoin: miter; stroke-miterlimit: 4; fill: rgb(255,234,0); fill-rule: nonzero; opacity: 1;"  points="0,75 0,-75 " />
</g>
<g transform="matrix(1 0 0 1 501 76)" id="id-12de03"  >
<polygon style="stroke: rgb(16,0,245); stroke-width: 2; stroke-dasharray: none; stroke-linecap: butt; stroke-dashoffset: 0; stroke-linejoin: miter; stroke-miterlimit: 4; fill: rgb(255,234,0); fill-rule: nonzero; opacity: 1;"  points="0,75 0,-75 " />
</g>
<g transform="matrix(1 0 0 1 43.84 26.06)" style="" id="id-4a514d"  >
		<text xml:space="preserve" font-family="sans-serif" font-size="24" font-style="normal" font-weight="bold" style="stroke: none; stroke-width: 1; stroke-dasharray: none; stroke-linecap: butt; stroke-dashoffset: 0; stroke-linejoin: miter; stroke-miterlimit: 4; fill: rgb(15,0,224); fill-rule: nonzero; opacity: 1; white-space: pre;" ><tspan x="-31.34" y="7.54" >row 1</tspan></text>
</g>
<g transform="matrix(1 0 0 1 44.63 79.06)" style="" id="id-773b47"  >
		<text xml:space="preserve" font-family="Microsoft JhengHei" font-size="24" font-style="normal" font-weight="bold" style="stroke: none; stroke-width: 1; stroke-dasharray: none; stroke-linecap: butt; stroke-dashoffset: 0; stroke-linejoin: miter; stroke-miterlimit: 4; fill: rgb(43,0,255); fill-rule: nonzero; opacity: 1; white-space: pre;" ><tspan x="-32.13" y="7.54" >row 2</tspan></text>
</g>
<g transform="matrix(1 0 0 1 44.63 129.06)" style="" id="id-cfd9cb"  >
		<text xml:space="preserve" font-family="Microsoft JhengHei" font-size="24" font-style="normal" font-weight="bold" style="stroke: none; stroke-width: 1; stroke-dasharray: none; stroke-linecap: butt; stroke-dashoffset: 0; stroke-linejoin: miter; stroke-miterlimit: 4; fill: rgb(43,0,255); fill-rule: nonzero; opacity: 1; white-space: pre;" ><tspan x="-32.13" y="7.54" >row 2</tspan></text>
</g>
<g transform="matrix(1 0 0 1 101 76)" id="id-f5cca1"  >
<polygon style="stroke: rgb(16,0,245); stroke-width: 2; stroke-dasharray: none; stroke-linecap: butt; stroke-dashoffset: 0; stroke-linejoin: miter; stroke-miterlimit: 4; fill: rgb(43,0,255); fill-rule: nonzero; opacity: 1;"  points="0,75 0,-75 " />
</g>
</svg>