<svg xmlns="http://www.w3.org/2000/svg" width="45" height="165"><g transform="matrix(1 0 0 1 22.5 52.5)" id="id-e3c07c"  >
<rect style="stroke: rgb(255,240,0); stroke-width: 0; stroke-dasharray: none; stroke-linecap: butt; stroke-dashoffset: 0; stroke-linejoin: miter; stroke-miterlimit: 4; fill: rgb(64,128,128); fill-rule: nonzero; opacity: 1;"  x="-22.5" y="-22.5" rx="0" ry="0" width="45" height="45" />
</g>
<g transform="matrix(1 0 0 1 22.5 142.5)" id="id-428a9f"  >
<rect style="stroke: rgb(255,240,0); stroke-width: 0; stroke-dasharray: none; stroke-linecap: butt; stroke-dashoffset: 0; stroke-linejoin: miter; stroke-miterlimit: 4; fill: rgb(64,128,128); fill-rule: nonzero; opacity: 1;"  x="-22.5" y="-22.5" rx="0" ry="0" width="45" height="45" />
</g>
<g transform="matrix(1 0 0 1 22.5 52.5)" id="id-6e082c"  >
<polygon style="stroke: rgb(255,255,255); stroke-width: 3; stroke-dasharray: none; stroke-linecap: butt; stroke-dashoffset: 0; stroke-linejoin: miter; stroke-miterlimit: 4; fill: rgb(64,128,128); fill-rule: nonzero; opacity: 1;"  points="-21,-21 21,21 " />
</g>
<g transform="matrix(1 0 0 1 22.5 52.5)" id="id-b0eba6"  >
<polygon style="stroke: rgb(255,255,255); stroke-width: 3; stroke-dasharray: none; stroke-linecap: butt; stroke-dashoffset: 0; stroke-linejoin: miter; stroke-miterlimit: 4; fill: rgb(64,128,128); fill-rule: nonzero; opacity: 1;"  points="21,-21 -21,21 " />
</g>
<g transform="matrix(1 0 0 1 22.5 142.5)" id="id-503220"  >
<polygon style="stroke: rgb(255,255,255); stroke-width: 3; stroke-dasharray: none; stroke-linecap: butt; stroke-dashoffset: 0; stroke-linejoin: miter; stroke-miterlimit: 4; fill: rgb(64,128,128); fill-rule: nonzero; opacity: 1;"  points="-21,-21 21,21 " />
</g>
<g transform="matrix(1 0 0 1 22.5 142.5)" id="id-ee940f"  >
<polygon style="stroke: rgb(255,255,255); stroke-width: 3; stroke-dasharray: none; stroke-linecap: butt; stroke-dashoffset: 0; stroke-linejoin: miter; stroke-miterlimit: 4; fill: rgb(64,128,128); fill-rule: nonzero; opacity: 1;"  points="21,-21 -21,21 " />
</g>
</svg>