<svg xmlns="http://www.w3.org/2000/svg" width="52" height="40"><g transform="matrix(1 0 0 1 26 20)" id="id-f58719"  >
<rect style="stroke: rgb(255,255,255); stroke-width: 0; stroke-dasharray: none; stroke-linecap: butt; stroke-dashoffset: 0; stroke-linejoin: miter; stroke-miterlimit: 4; fill: rgb(0,0,0); fill-rule: nonzero; opacity: 1;"  x="-26" y="-20" rx="0" ry="0" width="52" height="40" />
</g>
<g transform="matrix(1 0 0 1 5 10)" id="id-ac9149"  >
<polygon style="stroke: rgb(0,255,0); stroke-width: 5; stroke-dasharray: none; stroke-linecap: butt; stroke-dashoffset: 0; stroke-linejoin: miter; stroke-miterlimit: 4; fill: rgb(0,0,0); fill-rule: nonzero; opacity: 1;"  points="-2.5,-7.5 2.5,7.5 " />
</g>
<g transform="matrix(1 0 0 1 11 10)" id="id-a74023"  >
<polygon style="stroke: rgb(0,255,0); stroke-width: 5; stroke-dasharray: none; stroke-linecap: butt; stroke-dashoffset: 0; stroke-linejoin: miter; stroke-miterlimit: 4; fill: rgb(0,0,0); fill-rule: nonzero; opacity: 1;"  points="2.5,-7.5 -2.5,7.5 " />
</g>
<g transform="matrix(1 0 0 1 17 10)" id="id-8df9c0"  >
<polygon style="stroke: rgb(0,255,0); stroke-width: 5; stroke-dasharray: none; stroke-linecap: butt; stroke-dashoffset: 0; stroke-linejoin: miter; stroke-miterlimit: 4; fill: rgb(0,0,0); fill-rule: nonzero; opacity: 1;"  points="-2.5,-7.5 2.5,7.5 " />
</g>
<g transform="matrix(1 0 0 1 23 10)" id="id-3a6e9d"  >
<polygon style="stroke: rgb(0,255,0); stroke-width: 5; stroke-dasharray: none; stroke-linecap: butt; stroke-dashoffset: 0; stroke-linejoin: miter; stroke-miterlimit: 4; fill: rgb(0,0,0); fill-rule: nonzero; opacity: 1;"  points="2.5,-7.5 -2.5,7.5 " />
</g>
<g transform="matrix(1 0 0 1 29 10)" id="id-95ed29"  >
<polygon style="stroke: rgb(0,255,0); stroke-width: 5; stroke-dasharray: none; stroke-linecap: butt; stroke-dashoffset: 0; stroke-linejoin: miter; stroke-miterlimit: 4; fill: rgb(0,0,0); fill-rule: nonzero; opacity: 1;"  points="-2.5,-7.5 2.5,7.5 " />
</g>
<g transform="matrix(1 0 0 1 35 10)" id="id-704661"  >
<polygon style="stroke: rgb(0,255,0); stroke-width: 5; stroke-dasharray: none; stroke-linecap: butt; stroke-dashoffset: 0; stroke-linejoin: miter; stroke-miterlimit: 4; fill: rgb(0,0,0); fill-rule: nonzero; opacity: 1;"  points="2.5,-7.5 -2.5,7.5 " />
</g>
<g transform="matrix(1 0 0 1 41 10)" id="id-704514"  >
<polygon style="stroke: rgb(0,255,0); stroke-width: 5; stroke-dasharray: none; stroke-linecap: butt; stroke-dashoffset: 0; stroke-linejoin: miter; stroke-miterlimit: 4; fill: rgb(0,0,0); fill-rule: nonzero; opacity: 1;"  points="-2.5,-7.5 2.5,7.5 " />
</g>
<g transform="matrix(1 0 0 1 47 10)" id="id-3a719a"  >
<polygon style="stroke: rgb(0,255,0); stroke-width: 5; stroke-dasharray: none; stroke-linecap: butt; stroke-dashoffset: 0; stroke-linejoin: miter; stroke-miterlimit: 4; fill: rgb(0,0,0); fill-rule: nonzero; opacity: 1;"  points="2.5,-7.5 -2.5,7.5 " />
</g>
<g transform="matrix(1 0 0 1 5 30)" id="id-c48188"  >
<polygon style="stroke: rgb(0,255,0); stroke-width: 5; stroke-dasharray: none; stroke-linecap: butt; stroke-dashoffset: 0; stroke-linejoin: miter; stroke-miterlimit: 4; fill: rgb(0,0,0); fill-rule: nonzero; opacity: 1;"  points="2.5,-7.5 -2.5,7.5 " />
</g>
<g transform="matrix(1 0 0 1 11 30)" id="id-b99697"  >
<polygon style="stroke: rgb(0,255,0); stroke-width: 5; stroke-dasharray: none; stroke-linecap: butt; stroke-dashoffset: 0; stroke-linejoin: miter; stroke-miterlimit: 4; fill: rgb(0,0,0); fill-rule: nonzero; opacity: 1;"  points="-2.5,-7.5 2.5,7.5 " />
</g>
<g transform="matrix(1 0 0 1 17 30)" id="id-580425"  >
<polygon style="stroke: rgb(0,255,0); stroke-width: 5; stroke-dasharray: none; stroke-linecap: butt; stroke-dashoffset: 0; stroke-linejoin: miter; stroke-miterlimit: 4; fill: rgb(0,0,0); fill-rule: nonzero; opacity: 1;"  points="2.5,-7.5 -2.5,7.5 " />
</g>
<g transform="matrix(1 0 0 1 23 30)" id="id-105a71"  >
<polygon style="stroke: rgb(0,255,0); stroke-width: 5; stroke-dasharray: none; stroke-linecap: butt; stroke-dashoffset: 0; stroke-linejoin: miter; stroke-miterlimit: 4; fill: rgb(0,0,0); fill-rule: nonzero; opacity: 1;"  points="-2.5,-7.5 2.5,7.5 " />
</g>
<g transform="matrix(1 0 0 1 29 30)" id="id-861aeb"  >
<polygon style="stroke: rgb(0,255,0); stroke-width: 5; stroke-dasharray: none; stroke-linecap: butt; stroke-dashoffset: 0; stroke-linejoin: miter; stroke-miterlimit: 4; fill: rgb(0,0,0); fill-rule: nonzero; opacity: 1;"  points="2.5,-7.5 -2.5,7.5 " />
</g>
<g transform="matrix(1 0 0 1 35 30)" id="id-bd3cf3"  >
<polygon style="stroke: rgb(0,255,0); stroke-width: 5; stroke-dasharray: none; stroke-linecap: butt; stroke-dashoffset: 0; stroke-linejoin: miter; stroke-miterlimit: 4; fill: rgb(0,0,0); fill-rule: nonzero; opacity: 1;"  points="-2.5,-7.5 2.5,7.5 " />
</g>
<g transform="matrix(1 0 0 1 41 30)" id="id-19b63c"  >
<polygon style="stroke: rgb(0,255,0); stroke-width: 5; stroke-dasharray: none; stroke-linecap: butt; stroke-dashoffset: 0; stroke-linejoin: miter; stroke-miterlimit: 4; fill: rgb(0,0,0); fill-rule: nonzero; opacity: 1;"  points="2.5,-7.5 -2.5,7.5 " />
</g>
<g transform="matrix(1 0 0 1 47 30)" id="id-da3e52"  >
<polygon style="stroke: rgb(0,255,0); stroke-width: 5; stroke-dasharray: none; stroke-linecap: butt; stroke-dashoffset: 0; stroke-linejoin: miter; stroke-miterlimit: 4; fill: rgb(0,0,0); fill-rule: nonzero; opacity: 1;"  points="-2.5,-7.5 2.5,7.5 " />
</g>
</svg>