<svg xmlns="http://www.w3.org/2000/svg" width="52" height="40"><g transform="matrix(1 0 0 1 26 20)" id="id-6e5968"  >
<rect style="stroke: rgb(255,255,255); stroke-width: 0; stroke-dasharray: none; stroke-linecap: butt; stroke-dashoffset: 0; stroke-linejoin: miter; stroke-miterlimit: 4; fill: rgb(0,0,0); fill-rule: nonzero; opacity: 1;"  x="-26" y="-20" rx="0" ry="0" width="52" height="40" />
</g>
<g transform="matrix(1 0 0 1 5 10)" id="id-169fb7"  >
<polygon style="stroke: rgb(255,255,255); stroke-width: 5; stroke-dasharray: none; stroke-linecap: butt; stroke-dashoffset: 0; stroke-linejoin: miter; stroke-miterlimit: 4; fill: rgb(255,255,255); fill-rule: nonzero; opacity: 1;"  points="-2.5,-7.5 2.5,7.5 " />
</g>
<g transform="matrix(1 0 0 1 11 10)" id="id-c6fd3c"  >
<polygon style="stroke: rgb(255,255,255); stroke-width: 5; stroke-dasharray: none; stroke-linecap: butt; stroke-dashoffset: 0; stroke-linejoin: miter; stroke-miterlimit: 4; fill: rgb(255,255,255); fill-rule: nonzero; opacity: 1;"  points="2.5,-7.5 -2.5,7.5 " />
</g>
<g transform="matrix(1 0 0 1 17 10)" id="id-5805f3"  >
<polygon style="stroke: rgb(255,255,255); stroke-width: 5; stroke-dasharray: none; stroke-linecap: butt; stroke-dashoffset: 0; stroke-linejoin: miter; stroke-miterlimit: 4; fill: rgb(255,255,255); fill-rule: nonzero; opacity: 1;"  points="-2.5,-7.5 2.5,7.5 " />
</g>
<g transform="matrix(1 0 0 1 23 10)" id="id-da1f55"  >
<polygon style="stroke: rgb(255,255,255); stroke-width: 5; stroke-dasharray: none; stroke-linecap: butt; stroke-dashoffset: 0; stroke-linejoin: miter; stroke-miterlimit: 4; fill: rgb(255,255,255); fill-rule: nonzero; opacity: 1;"  points="2.5,-7.5 -2.5,7.5 " />
</g>
<g transform="matrix(1 0 0 1 29 10)" id="id-3790a5"  >
<polygon style="stroke: rgb(255,255,255); stroke-width: 5; stroke-dasharray: none; stroke-linecap: butt; stroke-dashoffset: 0; stroke-linejoin: miter; stroke-miterlimit: 4; fill: rgb(255,255,255); fill-rule: nonzero; opacity: 1;"  points="-2.5,-7.5 2.5,7.5 " />
</g>
<g transform="matrix(1 0 0 1 35 10)" id="id-b54452"  >
<polygon style="stroke: rgb(255,255,255); stroke-width: 5; stroke-dasharray: none; stroke-linecap: butt; stroke-dashoffset: 0; stroke-linejoin: miter; stroke-miterlimit: 4; fill: rgb(255,255,255); fill-rule: nonzero; opacity: 1;"  points="2.5,-7.5 -2.5,7.5 " />
</g>
<g transform="matrix(1 0 0 1 41 10)" id="id-ffffc1"  >
<polygon style="stroke: rgb(255,255,255); stroke-width: 5; stroke-dasharray: none; stroke-linecap: butt; stroke-dashoffset: 0; stroke-linejoin: miter; stroke-miterlimit: 4; fill: rgb(255,255,255); fill-rule: nonzero; opacity: 1;"  points="-2.5,-7.5 2.5,7.5 " />
</g>
<g transform="matrix(1 0 0 1 47 10)" id="id-3b73ec"  >
<polygon style="stroke: rgb(255,255,255); stroke-width: 5; stroke-dasharray: none; stroke-linecap: butt; stroke-dashoffset: 0; stroke-linejoin: miter; stroke-miterlimit: 4; fill: rgb(255,255,255); fill-rule: nonzero; opacity: 1;"  points="2.5,-7.5 -2.5,7.5 " />
</g>
<g transform="matrix(1 0 0 1 5 30)" id="id-d06f0e"  >
<polygon style="stroke: rgb(255,255,255); stroke-width: 5; stroke-dasharray: none; stroke-linecap: butt; stroke-dashoffset: 0; stroke-linejoin: miter; stroke-miterlimit: 4; fill: rgb(255,255,255); fill-rule: nonzero; opacity: 1;"  points="2.5,-7.5 -2.5,7.5 " />
</g>
<g transform="matrix(1 0 0 1 11 30)" id="id-180e8f"  >
<polygon style="stroke: rgb(255,255,255); stroke-width: 5; stroke-dasharray: none; stroke-linecap: butt; stroke-dashoffset: 0; stroke-linejoin: miter; stroke-miterlimit: 4; fill: rgb(255,255,255); fill-rule: nonzero; opacity: 1;"  points="-2.5,-7.5 2.5,7.5 " />
</g>
<g transform="matrix(1 0 0 1 17 30)" id="id-1c7859"  >
<polygon style="stroke: rgb(255,255,255); stroke-width: 5; stroke-dasharray: none; stroke-linecap: butt; stroke-dashoffset: 0; stroke-linejoin: miter; stroke-miterlimit: 4; fill: rgb(255,255,255); fill-rule: nonzero; opacity: 1;"  points="2.5,-7.5 -2.5,7.5 " />
</g>
<g transform="matrix(1 0 0 1 23 30)" id="id-307cde"  >
<polygon style="stroke: rgb(255,255,255); stroke-width: 5; stroke-dasharray: none; stroke-linecap: butt; stroke-dashoffset: 0; stroke-linejoin: miter; stroke-miterlimit: 4; fill: rgb(255,255,255); fill-rule: nonzero; opacity: 1;"  points="-2.5,-7.5 2.5,7.5 " />
</g>
<g transform="matrix(1 0 0 1 29 30)" id="id-690c8e"  >
<polygon style="stroke: rgb(255,255,255); stroke-width: 5; stroke-dasharray: none; stroke-linecap: butt; stroke-dashoffset: 0; stroke-linejoin: miter; stroke-miterlimit: 4; fill: rgb(255,255,255); fill-rule: nonzero; opacity: 1;"  points="2.5,-7.5 -2.5,7.5 " />
</g>
<g transform="matrix(1 0 0 1 35 30)" id="id-2e0ba8"  >
<polygon style="stroke: rgb(255,255,255); stroke-width: 5; stroke-dasharray: none; stroke-linecap: butt; stroke-dashoffset: 0; stroke-linejoin: miter; stroke-miterlimit: 4; fill: rgb(255,255,255); fill-rule: nonzero; opacity: 1;"  points="-2.5,-7.5 2.5,7.5 " />
</g>
<g transform="matrix(1 0 0 1 41 30)" id="id-561dbf"  >
<polygon style="stroke: rgb(255,255,255); stroke-width: 5; stroke-dasharray: none; stroke-linecap: butt; stroke-dashoffset: 0; stroke-linejoin: miter; stroke-miterlimit: 4; fill: rgb(255,255,255); fill-rule: nonzero; opacity: 1;"  points="2.5,-7.5 -2.5,7.5 " />
</g>
<g transform="matrix(1 0 0 1 47 30)" id="id-eecb88"  >
<polygon style="stroke: rgb(255,255,255); stroke-width: 5; stroke-dasharray: none; stroke-linecap: butt; stroke-dashoffset: 0; stroke-linejoin: miter; stroke-miterlimit: 4; fill: rgb(255,255,255); fill-rule: nonzero; opacity: 1;"  points="-2.5,-7.5 2.5,7.5 " />
</g>
</svg>