<svg xmlns="http://www.w3.org/2000/svg" width="77" height="82"><g transform="matrix(1 0 0 1 38.5 41)" id="id-56f415"  >
<rect style="stroke: rgb(0,0,0); stroke-width: 2; stroke-dasharray: none; stroke-linecap: butt; stroke-dashoffset: 0; stroke-linejoin: miter; stroke-miterlimit: 4; fill: rgb(157,157,157); fill-rule: nonzero; opacity: 1;"  x="-37.5" y="-40" rx="0" ry="0" width="75" height="80" />
</g>
<g transform="matrix(1 0 0 1 38 28)" id="id-c00f67"  >
<rect style="stroke: rgb(0,0,0); stroke-width: 1; stroke-dasharray: none; stroke-linecap: butt; stroke-dashoffset: 0; stroke-linejoin: miter; stroke-miterlimit: 4; fill: rgb(255,128,255); fill-rule: nonzero; opacity: 1;"  x="-32.5" y="-22.5" rx="0" ry="0" width="65" height="45" />
</g>
<g transform="matrix(1 0 0 1 38.49 28.23)" style="" id="id-99c79f"  >
		<text xml:space="preserve" font-family="sans-serif" font-size="19" font-style="normal" font-weight="bold" style="stroke: none; stroke-width: 1; stroke-dasharray: none; stroke-linecap: butt; stroke-dashoffset: 0; stroke-linejoin: miter; stroke-miterlimit: 4; fill: rgb(0,0,0); fill-rule: nonzero; opacity: 1; white-space: pre;" ><tspan x="-27.99" y="5.97" >7SL82</tspan></text>
</g>
<g transform="matrix(1 0 0 1 12.5 64.5)" id="id-b8e5f5"  >
<rect style="stroke: rgb(0,0,0); stroke-width: 1; stroke-dasharray: none; stroke-linecap: butt; stroke-dashoffset: 0; stroke-linejoin: miter; stroke-miterlimit: 4; fill: rgb(128,255,255); fill-rule: nonzero; opacity: 1;"  x="-7" y="-7" rx="0" ry="0" width="14" height="14" />
</g>
<g transform="matrix(1 0 0 1 29.5 64.5)" id="id-861aa6"  >
<rect style="stroke: rgb(0,0,0); stroke-width: 1; stroke-dasharray: none; stroke-linecap: butt; stroke-dashoffset: 0; stroke-linejoin: miter; stroke-miterlimit: 4; fill: rgb(0,128,0); fill-rule: nonzero; opacity: 1;"  x="-7" y="-7" rx="0" ry="0" width="14" height="14" />
</g>
<g transform="matrix(1 0 0 1 46.5 64.5)" id="id-5d8b9e"  >
<rect style="stroke: rgb(0,0,0); stroke-width: 1; stroke-dasharray: none; stroke-linecap: butt; stroke-dashoffset: 0; stroke-linejoin: miter; stroke-miterlimit: 4; fill: rgb(255,0,0); fill-rule: nonzero; opacity: 1;"  x="-7" y="-7" rx="0" ry="0" width="14" height="14" />
</g>
<g transform="matrix(1 0 0 1 63.5 64.5)" id="id-6a97c2"  >
<rect style="stroke: rgb(0,0,0); stroke-width: 1; stroke-dasharray: none; stroke-linecap: butt; stroke-dashoffset: 0; stroke-linejoin: miter; stroke-miterlimit: 4; fill: rgb(128,255,255); fill-rule: nonzero; opacity: 1;"  x="-7" y="-7" rx="0" ry="0" width="14" height="14" />
</g>
<g transform="matrix(1 0 0 1 12.5 65)" id="id-059e76"  >
<polygon style="stroke: rgb(255,255,255); stroke-width: 2; stroke-dasharray: none; stroke-linecap: butt; stroke-dashoffset: 0; stroke-linejoin: miter; stroke-miterlimit: 4; fill: rgb(128,255,255); fill-rule: nonzero; opacity: 1;"  points="6.5,0 -6.5,0 " />
</g>
<g transform="matrix(1 0 0 1 29 64.5)" id="id-ade18a"  >
<polygon style="stroke: rgb(255,255,255); stroke-width: 2; stroke-dasharray: none; stroke-linecap: butt; stroke-dashoffset: 0; stroke-linejoin: miter; stroke-miterlimit: 4; fill: rgb(128,255,255); fill-rule: nonzero; opacity: 1;"  points="0,-6.5 0,6.5 " />
</g>
<g transform="matrix(1 0 0 1 63.5 65)" id="id-cc0f5b"  >
<polygon style="stroke: rgb(255,255,255); stroke-width: 2; stroke-dasharray: none; stroke-linecap: butt; stroke-dashoffset: 0; stroke-linejoin: miter; stroke-miterlimit: 4; fill: rgb(128,255,255); fill-rule: nonzero; opacity: 1;"  points="6.5,0 -6.5,0 " />
</g>
<g transform="matrix(1 0 0 1 47 64)" id="id-5c0e12"  >
<circle style="stroke: rgb(255,255,255); stroke-width: 2; stroke-dasharray: none; stroke-linecap: butt; stroke-dashoffset: 0; stroke-linejoin: miter; stroke-miterlimit: 4; fill: none; fill-rule: nonzero; opacity: 1;"  cx="0" cy="0" r="5" />
</g>
<g transform="matrix(1 0 0 1 38.5 41)" id="id-16fb2c"  >
<rect style="stroke: rgb(255,0,0); stroke-width: 3; stroke-dasharray: none; stroke-linecap: butt; stroke-dashoffset: 0; stroke-linejoin: miter; stroke-miterlimit: 4; fill: none; fill-rule: nonzero; opacity: 1;"  x="-37" y="-39.5" rx="0" ry="0" width="74" height="79" />
</g>
</svg>