<svg xmlns="http://www.w3.org/2000/svg" width="77" height="82"><g transform="matrix(1 0 0 1 38.5 41)" id="id-28d788"  >
<rect style="stroke: rgb(0,0,0); stroke-width: 2; stroke-dasharray: none; stroke-linecap: butt; stroke-dashoffset: 0; stroke-linejoin: miter; stroke-miterlimit: 4; fill: rgb(157,157,157); fill-rule: nonzero; opacity: 1;"  x="-37.5" y="-40" rx="0" ry="0" width="75" height="80" />
</g>
<g transform="matrix(1 0 0 1 38 28)" id="id-504947"  >
<rect style="stroke: rgb(0,0,0); stroke-width: 1; stroke-dasharray: none; stroke-linecap: butt; stroke-dashoffset: 0; stroke-linejoin: miter; stroke-miterlimit: 4; fill: rgb(180,180,255); fill-rule: nonzero; opacity: 1;"  x="-32.5" y="-22.5" rx="0" ry="0" width="65" height="45" />
</g>
<g transform="matrix(1 0 0 1 37.02 28.47)" style="" id="id-28e44a"  >
		<text xml:space="preserve" font-family="sans-serif" font-size="18" font-style="normal" font-weight="bold" style="stroke: none; stroke-width: 1; stroke-dasharray: none; stroke-linecap: butt; stroke-dashoffset: 0; stroke-linejoin: miter; stroke-miterlimit: 4; fill: rgb(0,0,0); fill-rule: nonzero; opacity: 1; white-space: pre;" ><tspan x="-18" y="-6.14" >REF</tspan><tspan x="-21.52" y="17.45" >615H</tspan></text>
</g>
<g transform="matrix(1 0 0 1 12.5 64.5)" id="id-877f01"  >
<rect style="stroke: rgb(0,0,0); stroke-width: 1; stroke-dasharray: none; stroke-linecap: butt; stroke-dashoffset: 0; stroke-linejoin: miter; stroke-miterlimit: 4; fill: rgb(128,255,255); fill-rule: nonzero; opacity: 1;"  x="-7" y="-7" rx="0" ry="0" width="14" height="14" />
</g>
<g transform="matrix(1 0 0 1 29.5 64.5)" id="id-22b4d8"  >
<rect style="stroke: rgb(0,0,0); stroke-width: 1; stroke-dasharray: none; stroke-linecap: butt; stroke-dashoffset: 0; stroke-linejoin: miter; stroke-miterlimit: 4; fill: rgb(0,128,0); fill-rule: nonzero; opacity: 1;"  x="-7" y="-7" rx="0" ry="0" width="14" height="14" />
</g>
<g transform="matrix(1 0 0 1 29.5 64.5)" id="id-77b1a9"  >
<rect style="stroke: rgb(0,0,0); stroke-width: 1; stroke-dasharray: none; stroke-linecap: butt; stroke-dashoffset: 0; stroke-linejoin: miter; stroke-miterlimit: 4; fill: rgb(0,128,0); fill-rule: nonzero; opacity: 1;"  x="-7" y="-7" rx="0" ry="0" width="14" height="14" />
</g>
<g transform="matrix(1 0 0 1 46.5 64.5)" id="id-e075c0"  >
<rect style="stroke: rgb(0,0,0); stroke-width: 1; stroke-dasharray: none; stroke-linecap: butt; stroke-dashoffset: 0; stroke-linejoin: miter; stroke-miterlimit: 4; fill: rgb(255,0,0); fill-rule: nonzero; opacity: 1;"  x="-7" y="-7" rx="0" ry="0" width="14" height="14" />
</g>
<g transform="matrix(1 0 0 1 63.5 64.5)" id="id-fbe1a5"  >
<rect style="stroke: rgb(0,0,0); stroke-width: 1; stroke-dasharray: none; stroke-linecap: butt; stroke-dashoffset: 0; stroke-linejoin: miter; stroke-miterlimit: 4; fill: rgb(128,255,255); fill-rule: nonzero; opacity: 1;"  x="-7" y="-7" rx="0" ry="0" width="14" height="14" />
</g>
<g transform="matrix(1 0 0 1 13 65.5)" id="id-da6110"  >
<polygon style="stroke: rgb(255,255,255); stroke-width: 3; stroke-dasharray: none; stroke-linecap: butt; stroke-dashoffset: 0; stroke-linejoin: miter; stroke-miterlimit: 4; fill: rgb(128,255,255); fill-rule: nonzero; opacity: 1;"  points="6.5,0 -6.5,0 " />
</g>
<g transform="matrix(1 0 0 1 29.5 65)" id="id-46a950"  >
<polygon style="stroke: rgb(255,255,255); stroke-width: 3; stroke-dasharray: none; stroke-linecap: butt; stroke-dashoffset: 0; stroke-linejoin: miter; stroke-miterlimit: 4; fill: rgb(128,255,255); fill-rule: nonzero; opacity: 1;"  points="0,-6.5 0,6.5 " />
</g>
<g transform="matrix(1 0 0 1 64 65.5)" id="id-5de767"  >
<polygon style="stroke: rgb(255,255,255); stroke-width: 3; stroke-dasharray: none; stroke-linecap: butt; stroke-dashoffset: 0; stroke-linejoin: miter; stroke-miterlimit: 4; fill: rgb(128,255,255); fill-rule: nonzero; opacity: 1;"  points="6.5,0 -6.5,0 " />
</g>
<g transform="matrix(1 0 0 1 47 64)" id="id-7cd5f6"  >
<circle style="stroke: rgb(255,255,255); stroke-width: 2; stroke-dasharray: none; stroke-linecap: butt; stroke-dashoffset: 0; stroke-linejoin: miter; stroke-miterlimit: 4; fill: none; fill-rule: nonzero; opacity: 1;"  cx="0" cy="0" r="5" />
</g>
<g transform="matrix(1 0 0 1 38.5 41)" id="id-8f5fa8"  >
<rect style="stroke: rgb(255,0,0); stroke-width: 3; stroke-dasharray: none; stroke-linecap: butt; stroke-dashoffset: 0; stroke-linejoin: miter; stroke-miterlimit: 4; fill: none; fill-rule: nonzero; opacity: 1;"  x="-37" y="-39.5" rx="0" ry="0" width="74" height="79" />
</g>
</svg>